<svg width="214" height="121" viewBox="0 0 214 121" fill="none" xmlns="http://www.w3.org/2000/svg">
<g clip-path="url(#clip0_126_320)">
<path d="M31.5187 60.9305C41.4522 53.4835 40.058 48.8775 38.0103 44.2716C36.0933 39.5365 34.4378 35.5762 38.751 32.3047C21.6724 41.6888 42.6721 46.5961 31.5187 60.9305Z" fill="#FFCC97"/>
<path d="M27.6412 15C32.6079 20.2517 29.3403 25.0728 25.5064 30.9272C21.5417 36.5232 18.4484 42.2914 29.8196 54.2152C18.5791 32.9503 48.1616 31.0132 27.6412 15ZM8.68918 94.2053C8.68918 93.043 9.6041 91.9669 11.2161 91.0199C6.16224 92.2682 3.02536 94.0331 3.02536 96.0132C3.02536 99.8013 14.7015 102.901 29.1661 102.901C37.2261 102.901 44.4584 101.954 49.2508 100.404C45.1119 101.179 40.1887 101.652 34.8299 101.652C20.4089 101.652 8.68918 98.3377 8.68918 94.2053ZM53.0848 59.0364C53.0848 57.1424 49.8172 55.4205 44.6326 54.3013C48.728 55.6358 51.2985 57.5298 51.2985 59.6391C51.2985 60.4569 50.9064 61.2318 50.1658 61.9636C52.0827 61.1026 53.0848 60.1126 53.0848 59.0364Z" fill="#FFCC97"/>
<path d="M20.0604 92.5697C20.0604 92.0101 20.4961 91.4935 21.2803 91.02C18.8405 91.6227 17.3592 92.4836 17.3592 93.4306C17.3592 95.2386 22.9794 96.7452 29.9067 96.7452C33.7843 96.7452 37.2261 96.2717 39.5352 95.5399C37.5747 95.9273 35.1784 96.1425 32.6079 96.1425C25.6806 96.1425 20.0604 94.5498 20.0604 92.5697Z" fill="#FFCC97"/>
<path d="M33.8278 64.5892C21.0189 64.5892 10.6062 61.8342 10.6062 58.4766C10.6062 56.3243 14.9194 54.3872 21.411 53.311C13.0024 54.172 6.99003 56.2812 6.68506 58.821V59.0362C6.72863 74.2746 14.658 86.9733 25.245 89.9004C24.0686 90.2879 23.328 90.8475 23.328 91.4501C23.328 92.6554 26.2906 93.6455 29.9067 93.6455C30.386 93.6455 30.8652 93.6455 31.3445 93.6024C28.8611 93.1289 27.9026 91.0196 27.9026 87.8342C27.9026 83.8739 29.3403 78.1057 35.0042 71.1753C37.4439 68.2051 40.3194 65.7945 42.8899 64.1587C40.058 64.417 37.0083 64.5892 33.8278 64.5892ZM61.2756 70.2713C60.927 70.4435 60.0557 70.7018 59.4021 70.7879C58.4001 70.4004 57.9644 68.5925 56.0474 68.5925C54.3047 69.4965 51.8213 71.4336 49.5558 74.4468C46.5496 78.4071 45.3297 82.3673 45.3297 85.0362C45.3297 87.4038 46.2447 88.566 47.6388 88.566C51.5164 88.566 57.1366 84.3475 60.0557 81.2051C60.4042 81.6355 60.6656 82.1521 60.6656 82.9269C56.9188 87.3177 49.6865 91.6653 45.0248 91.6653C42.3671 91.6653 41.3215 89.8574 41.3215 86.9302C41.3215 83.7018 42.4978 79.0528 47.0289 73.4998C49.4687 70.5296 52.4748 68.2481 54.8275 66.9998C55.6553 66.5693 57.2237 66.0958 58.1822 66.0528C59.7071 66.0528 61.232 67.2581 62.1905 68.4203C62.1469 69.023 61.7112 69.7978 61.2756 70.2713ZM64.2382 86.0693C64.2382 88.0494 64.9353 88.3508 65.9809 88.3508C67.9414 88.3508 71.5576 82.9269 71.5576 79.1819C71.5576 77.8044 70.8169 76.9004 69.8149 76.5991C66.7651 78.5793 64.2382 82.97 64.2382 86.0693ZM70.4248 76.2117C71.2962 75.3508 72.5161 74.662 73.0824 74.662C73.9102 74.9634 74.6073 75.7382 74.6073 77.46C74.6073 83.2713 68.0721 91.2779 63.6718 91.2779C61.9291 91.2779 60.9706 89.9004 60.9706 87.8342C60.9706 82.6686 66.4166 76.8143 68.6385 75.4369C69.2049 75.3938 69.8148 75.6521 70.4248 76.2117ZM88.8976 61.4898C89.7689 61.1885 90.9017 60.8872 91.9473 60.8872C92.7315 62.6521 93.5593 65.4071 93.69 67.9038C93.4286 68.2912 92.5137 68.8077 91.8602 68.9369C91.3809 68.8077 90.9888 68.4634 90.7274 68.3342C90.6838 66.6554 90.6403 65.364 90.2917 64.1587C90.2482 63.9004 89.8561 64.0296 89.7253 64.2018C88.549 65.8375 87.547 67.7316 86.3706 70.1422C85.63 71.6918 84.5844 74.0594 83.6259 76.513C85.4993 76.47 87.547 76.3839 89.1154 76.2117C89.1154 76.7713 88.7669 77.3309 88.5926 77.6322C87.6777 77.8905 84.9765 78.2349 82.7545 78.5362C77.962 90.6753 74.9994 100.016 74.9994 103.374C74.9994 104.192 74.9559 104.192 75.043 104.794C74.7816 105.139 73.7795 105.698 73.2131 105.957C72.4725 105.957 71.4269 105.354 71.0348 104.708C73.0824 97.2614 75.6094 89.47 79.8355 78.7945C78.4849 78.8806 77.3521 79.0528 76.6114 79.1388C76.5243 78.8375 76.4807 78.321 76.4807 78.1488C76.7857 77.7183 77.265 77.0296 77.6135 76.8144C78.5284 76.7713 79.4869 76.7283 80.7504 76.6422C84.1487 68.9369 86.3706 64.7183 88.8976 61.4898Z" fill="#FFCC97"/>
<path d="M98.9182 61.49C99.7895 61.1887 100.922 60.8874 101.968 60.8874C102.752 62.6523 103.58 65.4072 103.711 67.9039C103.449 68.2913 102.534 68.8079 101.881 68.937C101.402 68.8079 101.009 68.4635 100.748 68.3344C100.704 66.6556 100.661 65.3642 100.312 64.1589C100.269 63.9006 99.8767 64.0297 99.746 64.2019C98.5696 65.8377 97.5676 67.7317 96.3912 70.1423C95.6506 71.692 94.605 74.0595 93.6465 76.5132C95.5199 76.4701 97.5676 76.384 99.136 76.2119C99.136 76.7715 98.7875 77.3311 98.6132 77.6324C97.6983 77.8907 94.9535 78.235 92.7751 78.5364C87.9826 90.6754 85.02 100.016 85.02 103.374C85.02 104.192 84.9765 104.192 85.0636 104.795C84.8022 105.139 83.8001 105.699 83.2338 105.957C82.4931 105.957 81.4475 105.354 81.0554 104.709C83.103 97.2615 85.63 89.4701 89.8125 78.7946C88.4619 78.8807 87.3291 79.0529 86.632 79.139C86.5449 78.8377 86.5013 78.3211 86.5013 78.1489C86.8063 77.7185 87.2856 77.0297 87.6341 76.8145C88.549 76.7715 89.5075 76.7284 90.771 76.6423C94.1693 68.937 96.3912 64.7185 98.9182 61.49ZM100.922 80.086C103.536 80.086 106.412 79.2251 106.412 77.245C106.412 76.298 105.54 75.9105 104.146 75.9105C103.144 76.8576 101.881 78.3211 100.922 80.086ZM105.366 74.3178C107.501 74.3178 109.331 74.7913 109.418 76.5132C109.505 79.2251 105.41 81.7218 100.138 81.7218C99.3103 83.5728 98.9182 85.1655 98.9182 86.6291C98.9182 87.7483 99.0053 88.7814 100.095 88.7814C102.011 88.7814 104.931 86.6291 106.673 85.1225C107.065 85.596 107.109 86.0695 107.109 86.8443C105.018 88.6092 100.53 91.3642 98.1339 91.3642C96.3041 91.3642 95.302 90.4172 95.302 88.5662C95.302 84.2615 99.0489 77.9337 103.101 74.6622C103.754 74.5331 104.669 74.3178 105.366 74.3178ZM114.385 80.086C116.999 80.086 119.874 79.2251 119.874 77.245C119.874 76.298 119.003 75.9105 117.609 75.9105C116.65 76.8576 115.387 78.3211 114.385 80.086ZM118.872 74.3178C121.007 74.3178 122.837 74.7913 122.968 76.5132C123.055 79.2251 118.959 81.7218 113.688 81.7218C112.86 83.5728 112.468 85.1655 112.468 86.6291C112.468 87.7483 112.555 88.7814 113.644 88.7814C115.605 88.7814 118.48 86.6291 120.223 85.1225C120.615 85.596 120.659 86.0695 120.659 86.8443C118.567 88.6092 114.08 91.3642 111.684 91.3642C109.854 91.3642 108.852 90.4172 108.852 88.5662C108.852 84.2615 112.598 77.9337 116.65 74.6622C117.217 74.5331 118.132 74.3178 118.872 74.3178ZM149.718 85.8542C149.718 87.5761 149.893 88.8675 150.154 89.8145C149.675 90.3741 148.281 91.0629 147.322 91.0629C147.061 90.8907 146.712 90.5463 146.407 90.0728C146.233 89.298 146.146 88.394 146.233 87.5761C146.233 83.3145 148.019 76.9867 148.847 73.7582C148.89 73.4999 148.542 73.3708 148.368 73.586C140.569 81.3774 138.042 85.9834 137.911 88.2218C137.301 88.7384 136.517 89.1258 135.515 89.4271C135.123 89.341 134.644 88.6953 134.252 88.1788C134.339 86.7582 134.339 86.1556 134.339 85.5099C134.339 82.1953 133.903 75.437 133.467 73.2417C133.424 72.9834 133.119 73.1125 132.988 73.2847C128.762 79.5695 126.017 86.0695 125.669 89.9437C125.364 90.3741 124.623 90.9337 123.97 91.192C123.447 91.1059 122.663 90.5463 122.314 90.1589C122.75 87.1026 126.017 80.9039 127.717 78.1489C130.2 73.9735 132.378 70.4867 132.596 68.8509C133.075 68.3344 133.947 67.8178 134.687 67.6026C135.341 67.9039 135.907 68.2913 136.299 68.6357C136.691 72.0794 137.171 78.7086 137.301 82.6258C137.301 82.9271 137.694 82.884 137.781 82.7549C140.656 78.8377 147.061 72.8973 149.675 68.4205C150.415 67.9039 151.243 67.6887 152.202 67.5595C152.594 67.99 153.16 69.0662 153.16 69.7119C151.94 72.8973 149.762 81.2913 149.718 85.8542ZM159.26 80.086C161.874 80.086 164.749 79.2251 164.749 77.245C164.749 76.298 163.878 75.9105 162.484 75.9105C161.525 76.8576 160.262 78.3211 159.26 80.086ZM163.747 74.3178C165.882 74.3178 167.712 74.7913 167.799 76.5132C167.886 79.2251 163.791 81.7218 158.519 81.7218C157.691 83.5728 157.299 85.1655 157.299 86.6291C157.299 87.7483 157.386 88.7814 158.475 88.7814C160.436 88.7814 163.311 86.6291 165.054 85.1225C165.446 85.596 165.49 86.0695 165.49 86.8443C163.399 88.6092 158.911 91.3642 156.515 91.3642C154.685 91.3642 153.683 90.4172 153.683 88.5662C153.683 84.2615 157.43 77.9337 161.482 74.6622C162.092 74.5331 163.006 74.3178 163.747 74.3178ZM170.936 85.8542C170.936 86.6721 171.11 86.8874 171.502 86.8874C172.896 86.8874 177.95 81.937 179.78 78.8377C179.432 77.9768 178.473 77.1589 177.82 77.1589C176.251 77.2019 170.936 82.6258 170.936 85.8542ZM179.388 82.3675C175.031 87.1456 170.718 90.8046 168.583 90.8046C167.755 90.8046 167.145 90.2019 167.145 88.7384C167.145 82.4536 175.859 75.0927 178.778 75.0927C179.649 75.0927 180.826 75.9966 181.697 76.9867C183.483 72.7682 185.923 66.8278 187.317 62.6953C187.404 62.394 187.448 62.0927 187.448 61.7483C188.406 61.2317 189.67 60.8013 190.498 60.8013C190.846 61.3178 191.108 62.1788 191.021 62.8244C189.06 65.9238 185.705 73.586 183.091 80.8609C182.22 83.3576 181.436 86.1986 181.61 88.7384C181.653 89.5993 181.915 90.1589 182.22 90.288C182.22 90.7615 182.22 91.235 182.089 91.6225C181.479 92.1821 179.911 93.086 179.127 93.086C178.56 92.6556 178.299 91.3211 178.299 90.1158C178.299 88.1357 178.822 85.4668 179.737 82.6258C179.911 82.3675 179.519 82.2814 179.388 82.3675ZM197.425 66.9569C197.425 67.4304 196.728 69.2384 194.811 69.9701C193.809 69.5397 193.199 68.5927 193.199 68.1192C193.155 67.8178 194.375 65.4503 196.162 65.3211C196.815 65.7086 197.425 66.7847 197.425 66.9569ZM186.054 88.9105C186.054 86.8443 187.274 83.4006 189.147 78.5364C189.234 78.192 189.409 77.4602 189.234 76.8576C189.844 76.341 191.021 75.7384 191.805 75.6092C192.197 75.6953 192.763 76.341 192.981 76.9006C189.975 82.5397 189.234 85.2086 189.234 86.7152C189.234 87.5331 189.496 87.9635 189.844 87.9635C190.367 87.9635 191.805 87.1887 192.85 86.2847C193.068 86.6291 193.286 87.2748 193.286 87.6622C190.236 89.9437 188.058 90.8907 187.23 90.8907C186.533 90.9337 186.054 90.5033 186.054 88.9105ZM198.079 86.7152C198.079 87.1887 198.122 87.5331 198.471 87.5331C200.039 87.5331 203.786 84.2615 206.836 78.3211C206.531 77.7615 205.572 76.9436 205.18 76.9436C203.307 76.9436 198.079 82.6258 198.079 86.7152ZM208.186 75.8244C208.666 75.5231 209.188 75.2648 209.755 74.9635C210.19 75.1357 210.626 75.2218 211.018 75.6523C209.45 78.9668 207.054 84.3476 207.054 87.3609C207.054 88.0496 207.315 88.394 207.62 88.394C208.099 88.394 209.275 87.7052 210.147 87.0165C210.321 87.3609 210.495 87.9205 210.539 88.3509C209.232 89.4701 206.095 91.5794 204.701 91.5794C204.309 91.5794 203.786 91.1059 203.786 90.0297C203.742 89.2119 204.134 86.7152 204.788 85.0364C204.832 84.9072 204.527 84.692 204.352 84.9503C201.215 88.3509 197.686 91.0629 195.464 91.0629C194.942 91.0629 194.332 90.5033 194.332 89.2549C194.332 85.7251 196.728 80.5595 202.174 76.6854C203.481 75.7814 205.18 74.9205 206.182 74.9205C206.705 74.9205 207.489 75.394 208.186 75.8244Z" fill="#FFCC97"/>
</g>
<defs>
<clipPath id="clip0_126_320">
<rect width="208" height="91" fill="white" transform="translate(3 15)"/>
</clipPath>
</defs>
</svg>
