<svg width="214" height="121" viewBox="0 0 214 121" fill="none" xmlns="http://www.w3.org/2000/svg">
<path fill-rule="evenodd" clip-rule="evenodd" d="M109.445 69.7122C109.445 69.7122 112.217 63.23 116.23 64.1964C116.23 64.1964 120.359 64.424 117.814 73.9206C117.814 73.9206 115.892 82.6204 111.65 81.9384C111.65 81.9384 108.428 81.4839 110.124 75.1719C110.124 75.1719 111.65 69.5414 113.968 67.6086L113.007 67.4952C113.007 67.4952 108.88 70.5077 108.088 76.4793C108.088 76.4793 107.24 82.7919 111.369 83.3038C111.369 83.3038 117.192 84.1561 119.567 74.4318C119.567 74.4318 122.337 64.1403 116.57 62.889C116.57 62.889 113.686 61.7512 110.52 66.2439C110.52 66.2439 109.616 67.608 109.276 69.3712C109.276 69.3712 109.107 69.8837 109.445 69.7122ZM122.45 65.6173C122.45 65.6173 122.054 71.3039 120.98 76.4787C120.98 76.4787 119.792 82.9608 120.131 85.9747C120.131 85.9747 120.131 87.1125 121.092 87.2254C121.092 87.2254 121.375 87.5097 121.319 86.4866C121.319 86.4866 121.771 79.5486 122.336 76.7056C122.336 76.7056 123.466 71.5308 124.71 69.4266C124.71 69.4266 125.785 67.4939 126.35 67.6635C126.35 67.6635 127.311 67.6067 126.18 72.953C126.18 72.953 125.219 78.298 123.918 78.6964C123.918 78.6964 123.184 78.8098 123.524 77.331C123.524 77.331 123.466 76.9899 123.297 77.3877C123.297 77.3877 122.788 79.4352 123.75 79.5486C123.75 79.5486 126.52 80.515 127.651 72.4972C127.651 72.4972 128.612 66.5256 126.69 66.2993C126.69 66.2993 125.107 66.015 123.581 70.2795C123.581 70.2795 123.128 70.7914 123.241 70.2228L123.298 69.6542C123.298 69.6542 123.807 67.151 123.919 66.2426C123.919 66.2426 124.259 65.674 122.732 65.333C122.733 65.3342 122.45 65.3342 122.45 65.6173ZM156.94 55.6094C156.94 55.6094 156.261 61.296 155.187 66.4141C155.187 66.4141 153.999 73.7498 154.168 75.9101C154.168 75.9101 154.112 77.0479 155.073 77.1607C155.073 77.1607 155.356 77.445 155.299 76.4787C155.299 76.4787 155.921 69.484 156.6 66.7545C156.6 66.7545 157.787 61.523 159.145 59.5335C159.145 59.5335 160.275 57.5421 160.84 57.7697C160.84 57.7697 161.801 57.7697 160.5 63.0586C160.5 63.0586 159.427 68.4042 158.126 68.6891C158.126 68.6891 157.392 68.8593 157.73 67.3804C157.73 67.3804 157.674 66.9827 157.561 67.3804C157.561 67.3804 156.939 69.4846 157.9 69.5994C157.9 69.5994 160.614 70.6225 161.971 62.6614C161.971 62.6614 163.101 56.6899 161.179 56.4062C161.179 56.4062 159.595 56.1219 157.956 60.3297C157.956 60.3297 157.504 60.7854 157.617 60.2162C157.73 59.647 157.73 59.7043 157.73 59.7043C157.73 59.7043 158.296 57.2024 158.409 56.2921C158.409 56.2921 158.805 55.7235 157.277 55.3825C157.278 55.3818 156.996 55.3251 156.94 55.6094ZM135.963 64.0256C135.963 64.0256 136.359 65.391 135.227 70.2814C135.227 70.2814 134.436 73.8065 134.549 74.9437C134.549 74.9437 134.436 75.9101 135.51 75.9668C135.51 75.9668 135.68 76.0815 135.737 75.6838C135.737 75.6838 136.415 70.6225 139.751 64.4813C139.751 64.4813 140.938 62.5473 140.429 64.3105C140.429 64.3105 139.693 67.2676 139.524 68.8599C139.524 68.8599 138.903 73.2392 140.316 73.4094C140.316 73.4094 142.069 73.5228 143.03 68.4622C143.03 68.4622 143.087 67.8936 142.86 68.4054C142.86 68.4054 141.503 72.2148 140.882 71.9305C140.882 71.9305 140.486 71.817 140.882 68.5189C140.882 68.5189 141.503 65.9028 141.956 64.3105C141.956 64.3105 142.748 62.0367 141.956 61.6377C141.956 61.6377 141.051 61.0691 139.808 62.4912C139.808 62.4912 138.564 64.3111 137.433 67.6093C137.433 67.6093 137.207 67.8368 137.207 67.325C137.207 67.325 137.66 65.164 137.094 64.0829C137.094 64.0829 136.868 63.4576 136.076 63.6852C136.076 63.6845 135.906 63.6845 135.963 64.0256ZM148.232 59.3059C148.232 59.3059 146.762 64.5374 146.706 67.267C146.706 67.267 146.31 70.6218 147.836 71.0196C147.836 71.0196 149.363 71.6449 150.664 67.4945C150.664 67.4945 151.568 64.5935 151.568 66.1859C151.568 66.1859 151.342 69.2564 152.417 69.143C152.417 69.143 153.491 69.7683 154.395 65.4471C154.395 65.4471 154.395 65.0493 154.226 65.4471C154.226 65.4471 153.321 68.1199 152.754 67.8923C152.754 67.8923 152.245 67.8923 152.529 65.9016C152.529 65.9016 153.659 60.8415 153.83 59.5902C153.83 59.5902 154.226 58.8502 152.925 58.7367C152.925 58.7367 152.642 58.5659 152.529 58.9643C152.529 58.9643 150.833 65.9009 149.702 67.7208C149.702 67.7208 148.74 69.5987 148.345 69.3138C148.345 69.3138 148.062 69.3705 148.119 68.517C148.119 68.517 148.062 65.3897 149.419 61.1813C149.419 61.1813 150.324 58.9636 148.458 59.1338C148.458 59.1351 148.288 59.0216 148.232 59.3059ZM134.21 64.7656C134.662 65.3342 134.493 65.732 134.493 65.732C134.153 69.4279 131.496 71.7023 131.496 71.7023C130.875 72.3856 130.139 71.7603 130.139 71.7603C129.518 75.9674 130.422 75.854 130.422 75.854C131.553 76.2517 133.136 72.4991 133.136 72.4991C133.249 72.1581 133.476 72.2715 133.476 72.2715C133.814 72.4424 133.589 72.8969 133.589 72.8969C132.175 77.6739 129.97 77.0485 129.97 77.0485C127.708 76.4232 129.009 70.5664 129.009 70.5664C129.63 66.2451 131.609 64.1409 131.609 64.1409C132.345 63.2874 133.305 63.8566 133.305 63.8566C133.701 64.0256 134.21 64.7656 134.21 64.7656ZM130.648 71.1911C131.27 71.3613 132.513 68.575 132.513 68.575C134.153 65.0499 133.249 65.1067 133.249 65.1067C132.684 64.9358 131.383 67.7215 131.383 67.7215C129.913 71.4754 130.648 71.1911 130.648 71.1911Z" fill="#FFA304" stroke="#FFA304" stroke-miterlimit="2.613" stroke-linecap="round" stroke-linejoin="round"/>
<path fill-rule="evenodd" clip-rule="evenodd" d="M92.5398 44.4069C91.6919 42.6444 89.0346 42.3033 87.9601 43.3832C87.4511 43.895 87.6206 44.9755 88.5821 45.4874C89.4819 45.9333 90.3865 46.3693 91.2958 46.7954C94.2362 48.2169 94.6316 50.4346 94.5751 51.4583C94.2927 56.2353 90.1084 56.5196 88.4126 56.5763C86.6032 56.6331 84.7938 55.8937 84.2283 55.5526C83.7194 55.2683 83.4934 54.984 83.4934 54.984L84.3419 51.174H84.4549C84.4549 51.174 85.0769 54.017 88.1867 54.017C90.4486 54.017 90.731 52.3679 90.2785 51.6285C89.6565 50.6615 88.0166 50.1497 86.5467 49.4102C85.4164 48.8416 83.6635 47.4201 83.7758 44.9181C84.0024 41.279 87.2252 40.1418 89.6565 40.1418C92.0314 40.1418 93.3318 41.0514 93.3318 41.0514C93.7272 41.279 93.8973 41.4492 93.8973 41.4492L92.8793 44.9181V44.9749H92.7657C92.7663 44.9755 92.7663 44.862 92.5398 44.4069ZM118.662 50.0935C116.005 42.0758 115.439 40.5975 115.439 40.5975H110.294V40.711C111.029 40.7677 110.973 41.7347 110.803 42.2466C110.803 42.1899 106.845 54.7003 106.506 56.1218H110.464V56.0077C110.408 56.0077 109.842 55.6667 109.898 54.6997C110.012 53.9603 110.408 52.4253 110.408 52.4253H114.648C114.931 53.3349 115.044 53.7901 115.213 54.1878C115.722 55.7802 116.117 56.0645 116.117 56.0645H121.263V56.0077C120.697 55.951 120.359 55.0981 120.188 54.643C119.963 54.0744 119.736 53.5625 118.662 50.0935ZM113.856 49.9794H111.029L111.086 49.8653L112.443 45.0322V44.9181L112.499 45.0322C112.612 45.43 113.235 47.5916 113.912 49.8653L113.969 49.9794H113.856ZM140.429 37.9808C141.843 37.0712 142.182 35.4789 142.069 34.0567V34C142.069 34 140.26 35.6491 132.796 38.436V38.4927C132.796 38.4927 138.564 39.0613 140.429 37.9808ZM106.392 44.862C105.827 43.0421 104.075 42.5876 103.113 42.7011C101.926 42.8719 99.7773 43.9524 99.6644 47.2505C99.4943 51.9702 101.869 53.3923 103.509 53.6766C105.94 54.0744 106.732 52.5961 106.845 52.482H106.958C106.11 55.6094 104.866 56.5763 102.265 56.5763C99.7774 56.5763 95.4236 54.5289 95.3107 48.5012C95.2542 42.3594 99.7774 40.1985 102.887 40.0844C105.997 39.9709 107.41 41.2222 107.41 41.2222C107.636 41.4492 107.75 41.62 107.75 41.62L106.506 44.9181H106.449L106.392 44.862ZM72.5812 56.1212C72.5247 56.0071 72.2988 55.2116 72.2988 54.2446V45.9986C72.2988 45.9986 72.4682 40.7671 71.2243 40.7104V40.5969H82.306L81.797 44.3502V44.4636H81.7405V44.3502C81.6275 44.1226 81.4575 43.2697 80.157 43.2697C79.0261 43.2697 77.1608 43.213 76.7648 43.213H76.7083V46.5678L76.7648 46.5111H81.4574L80.9485 49.6384H80.892V49.5817C80.892 49.5817 80.8355 49.1833 80.0441 49.1833C79.3091 49.1833 77.1602 49.1265 76.7648 49.1265H76.7083V53.391H76.7648C77.1044 53.4478 79.0261 53.6754 80.6096 53.3343C82.5319 52.8792 82.8708 52.0836 82.9273 52.0263L83.0403 52.083L82.0223 56.1206H72.5812V56.1212ZM133.193 56.1212C133.08 56.0071 132.909 55.2116 132.909 54.2446V45.9986C132.909 45.9986 133.024 40.7671 131.836 40.7104V40.5969H142.918L142.408 44.3502V44.4636H142.352C142.352 44.4069 142.295 44.3502 142.295 44.3502C142.239 44.1226 142.014 43.2697 140.769 43.2697C139.637 43.2697 137.772 43.213 137.376 43.213H137.32V46.5678L137.376 46.5111H142.014L141.561 49.6384H141.503V49.5817C141.503 49.5817 141.39 49.1833 140.656 49.1833C139.864 49.1833 137.715 49.1265 137.376 49.1265H137.319V53.391H137.376C137.715 53.4478 139.637 53.6754 141.221 53.3343C143.143 52.8792 143.483 52.0836 143.539 52.0263L143.595 52.083L142.634 56.1206H133.193V56.1212ZM126.86 56.0645V56.0077C126.803 55.951 125.956 55.8369 125.956 54.0176V49.1272H126.012C126.352 49.1272 128.33 49.1839 129.122 49.1839C129.857 49.1839 129.97 49.5823 129.97 49.5823V49.639H130.027C130.027 49.639 130.31 47.5355 130.479 46.5117H126.013L125.956 46.5685V43.2136H126.013C126.409 43.2136 128.105 43.2703 129.179 43.2703C130.479 43.2703 130.705 44.1232 130.762 44.3508V44.4643H130.875V44.3508C131.045 43.2136 131.384 40.5975 131.384 40.5975H120.472V40.711C121.659 40.8245 121.546 45.9992 121.546 45.9992V54.4154C121.546 54.4154 121.489 55.6667 121.829 56.0645H126.86Z" fill="#FFCC97"/>
<path fill-rule="evenodd" clip-rule="evenodd" d="M56.7497 50.8321C56.7497 47.1362 56.6933 43.7807 56.6933 43.2688V43.1547C56.6933 43.2115 56.7497 43.2688 56.7497 43.2688C56.8062 43.3256 57.5412 44.065 61.1599 49.8084C64.1562 54.5854 63.8737 54.1303 64.2698 54.6421C64.6093 55.2107 65.0612 56.0636 66.0791 56.0636H69.9239C69.9239 56.0636 69.6979 55.154 69.6979 52.0834V38.2649H129.235C129.235 38.2649 131.101 38.2082 132.571 35.2511L132.457 35.1943C132.4 35.3084 132.232 35.3652 131.608 35.3652H65.0612V35.4219C65.0612 35.4219 66.022 36.0472 66.022 40.0842C66.022 43.4964 66.0785 47.1923 66.0785 47.1923V48.2734C66.0785 48.2167 66.022 48.1593 66.022 48.1593C65.7396 47.6474 61.6683 40.9938 61.047 40.0274C61.047 40.0274 59.2376 37.2412 58.2761 36.2174C57.4847 35.3645 56.7491 35.3645 56.3537 35.3645H52V35.478C52.0565 35.478 53.0738 36.1033 53.0738 40.596V50.8315C53.0738 55.4944 52 56.0063 52 56.0063V56.063H56.0707C56.7491 56.063 56.7491 55.5511 56.7491 55.4377L56.7497 50.8321ZM144.784 54.813C144.784 54.0168 145.405 53.4482 146.197 53.4482C146.931 53.4482 147.554 54.0168 147.554 54.813C147.554 55.6665 146.931 56.2345 146.197 56.2345C145.405 56.2345 144.784 55.6659 144.784 54.813ZM146.197 56.0069C146.818 56.0069 147.271 55.495 147.271 54.8123C147.271 54.187 146.818 53.6751 146.197 53.6751C145.518 53.6751 145.066 54.187 145.066 54.8123C145.066 55.4957 145.518 56.0069 146.197 56.0069ZM145.858 55.6659H145.632V54.0168H146.254C146.65 54.0168 146.819 54.1876 146.819 54.4719C146.819 54.7562 146.649 54.927 146.422 54.927L146.875 55.6665H146.593L146.141 54.927H145.858V55.6659ZM146.197 54.7562C146.367 54.7562 146.537 54.6995 146.537 54.4719C146.537 54.3011 146.367 54.2444 146.197 54.2444H145.858V54.7562H146.197Z" fill="#FFCC97"/>
</svg>
