<svg width="214" height="121" viewBox="0 0 214 121" fill="none" xmlns="http://www.w3.org/2000/svg">
<path d="M163.629 48.811C163.125 46.5317 162.242 44.1256 160.603 42.3528C157.955 39.4403 153.921 38.1741 150.139 39.5669C149.76 39.6935 149.508 39.9469 149.256 40.2001C148.878 40.5802 148.626 41.2131 148.626 41.7198C148.626 42.8594 149.634 43.8724 150.769 43.8724C151.021 43.8724 151.147 43.8724 151.399 43.7459C151.652 43.7459 151.778 43.6193 152.03 43.6193C152.786 43.3658 153.543 43.3658 154.299 43.4927C159.594 44.3791 160.225 51.7237 159.594 55.9024C159.342 57.9285 158.586 60.208 156.821 61.4742C156.316 61.8543 156.064 62.1075 155.182 62.1075C154.551 62.1075 154.173 61.6011 153.795 61.221C152.913 60.3346 152.408 59.3216 151.904 58.3085C151.652 57.8019 151.4 57.1689 151.147 56.6626C150.895 56.029 150.769 55.3961 150.265 54.8894C149.256 53.8764 147.617 54.003 146.861 55.1426C146.23 56.029 146.735 57.1686 146.609 58.182C146.482 59.195 146.356 60.208 145.978 61.221C145.726 62.1075 145.348 63.1205 144.844 64.0072C144.718 64.2604 144.465 64.6402 144.213 64.8933C144.087 65.0199 143.961 65.0199 143.835 65.0199C143.709 65.0199 143.583 65.0199 143.457 64.8933C141.944 63.5006 141.187 61.2213 140.809 59.195C140.431 57.2955 140.305 54.5096 140.305 52.6102C140.305 51.3437 139.296 50.4572 138.161 50.4572C137.027 50.4572 136.144 51.2174 136.018 52.2301C136.018 52.6102 135.892 52.8634 135.892 53.2431C135.892 54.383 135.892 55.6493 136.018 56.7889C136.018 57.549 136.27 58.3085 136.27 59.195C136.27 59.9548 136.144 60.841 136.018 61.6011C135.766 62.6141 135.388 64.0072 134.631 64.8933C134.631 64.8933 134.505 65.0199 134.379 65.0199C134.253 65.0199 134.253 65.0199 134.127 64.8933C133.749 64.6402 133.497 64.0069 133.37 63.6271C132.74 62.3606 132.362 61.0944 131.984 59.7016C131.605 58.4351 131.479 57.0423 130.597 56.029C129.714 55.1426 128.453 54.6362 127.319 54.6362C125.176 54.383 123.158 55.2695 121.772 56.9155C121.041 57.8931 120.525 59.0153 120.259 60.208C120.133 60.9678 120.006 61.6011 120.006 62.3606V63.5006C120.006 64.0069 120.133 64.5136 120.006 64.8933C119.628 65.9064 118.746 66.6662 117.863 67.2995H117.737C117.611 67.2995 117.485 67.1729 117.485 67.0463C116.854 65.1468 116.098 63.2471 114.963 61.7277C114.333 60.8413 113.451 59.9548 112.694 59.195C112.316 58.8149 111.938 58.4351 111.433 58.182C111.181 58.0554 111.055 57.8019 110.803 57.6753L110.551 57.4221C110.425 57.1689 110.425 57.1689 110.677 56.9155C112.82 53.6232 115.342 48.4312 112.568 44.7589C109.92 41.3397 104.877 42.7328 102.986 46.1517C101.978 47.9245 101.852 49.9509 102.23 51.8503C102.482 52.99 102.86 54.003 103.238 55.016C103.491 55.5227 103.743 56.029 103.995 56.4091C104.121 56.6623 104.373 57.0423 104.625 57.2955V57.4221C104.625 57.5487 104.625 57.5487 104.499 57.5487C102.86 59.4482 100.843 61.4742 98.8255 62.8673C96.9344 64.1335 94.4129 65.1468 92.1436 64.2604C92.0176 64.2604 92.0176 64.1335 92.0176 64.0069C92.0176 63.8803 92.0176 63.8803 92.1436 63.7537C94.1608 61.4742 95.9259 58.8152 96.3043 55.7758C96.5563 53.3697 95.6738 49.9509 93.1522 49.0644C90.2525 48.0514 87.4789 50.8373 86.2179 53.2431C84.4529 55.7758 84.3268 59.195 85.2094 62.1075C85.3354 62.6141 85.5878 62.9939 85.7138 63.374C85.8398 63.6271 85.8398 63.7537 85.5878 64.0069C85.4614 64.2604 85.2094 64.387 85.0833 64.6402C84.4529 65.2734 83.6966 66.0333 82.9401 66.5396C81.6792 67.4261 80.0402 68.3125 78.4014 68.0593C78.2751 68.0593 78.149 67.9327 78.149 67.8061C78.149 67.6792 78.149 67.6792 78.2751 67.5526C80.1665 65.5266 81.6792 62.9939 82.0576 60.3346C82.3097 58.0554 81.8052 55.1426 79.9141 53.7498C78.149 52.4836 76.0059 53.1165 74.4929 54.383C72.4757 56.029 71.2151 58.4351 70.837 60.9678C70.5846 62.4875 70.5846 64.1335 70.9627 65.6532L71.3411 66.7928C71.3411 66.9197 71.4671 67.0463 71.4671 67.1729C71.5932 67.5529 71.5932 67.5529 71.2151 67.8061L69.1979 68.8192H69.0716C68.9455 68.8192 68.8195 68.6926 68.8195 68.5657C67.8109 64.8936 64.7852 62.4875 61.2548 61.221C58.3551 60.208 55.0773 58.5617 53.8163 55.6493C53.0598 54.0033 53.3122 52.2301 54.1947 50.7107C55.2033 48.9379 56.8424 47.4182 58.7335 46.4051C60.3722 45.5187 62.6417 44.7589 64.4068 45.7719C65.4154 46.2786 65.7938 47.165 65.6675 48.3046C65.5414 49.3176 64.6589 49.9506 64.5329 50.9639V51.2171C64.5316 51.5168 64.5894 51.8138 64.703 52.0909C64.8166 52.3681 64.9838 52.6199 65.1948 52.8318C65.4058 53.0437 65.6565 53.2116 65.9324 53.3257C66.2083 53.4398 66.504 53.4979 66.8024 53.4966C67.3065 53.4966 67.8109 53.37 68.189 52.99C68.9458 52.3567 69.45 51.2171 69.8281 50.3307C70.2065 49.3176 70.3325 48.3046 70.2065 47.165C70.0802 45.0121 68.8195 43.2392 67.0544 42.0996C63.2722 39.6935 58.3551 41.0866 54.951 43.6193C51.9252 45.8985 49.2779 49.3176 49.0255 53.2431C48.7735 56.4091 50.4122 59.3216 52.8078 61.4742C54.1947 62.7407 55.9598 63.7537 57.7249 64.6402C59.616 65.5266 61.7592 65.9064 63.2722 67.4263C63.7763 67.9327 64.1547 68.4391 64.4068 69.0723V69.1989C64.4068 69.3255 64.2808 69.4521 64.1547 69.4521C62.7678 69.1989 61.3808 68.5657 59.9941 68.3125C58.3554 67.9324 56.8424 67.9324 55.203 68.3125C51.9255 69.0723 49.53 71.7316 49.656 75.1508C49.7821 78.5696 52.3036 81.2289 55.5814 82.1153C59.1116 83.1287 62.8938 81.7356 65.6675 79.3294C66.9284 78.1898 67.937 76.7967 68.5674 75.2774C68.6935 74.8973 68.9458 74.1377 69.0716 73.7577C68.6932 73.5045 68.8195 73.5045 68.8195 73.5045C68.9455 73.5045 69.1979 73.3779 69.3237 73.3779C70.2062 73.1244 71.2151 72.7446 71.9713 72.3649C72.3497 72.238 73.8627 71.3516 74.2408 71.0984H74.4929C74.6189 71.0984 74.6189 71.225 74.7452 71.225C74.8713 71.3516 75.1233 71.4784 75.2494 71.4784C76.0059 71.8582 76.7624 72.1114 77.5189 72.238C79.6621 72.6181 81.9316 71.9848 83.8227 70.8452C85.3354 69.9588 87.1005 68.3125 88.3614 67.1729C88.3614 67.1729 88.4874 67.0463 88.6135 67.0463H88.7395C88.9916 67.1729 89.37 67.4263 89.7481 67.6792C90.1265 67.9327 90.6306 68.0593 91.009 68.1859C97.4389 70.2119 103.364 65.0199 107.273 60.4612C107.273 60.4612 107.399 60.3346 107.525 60.3346C107.651 60.3346 107.651 60.3346 107.777 60.4612C108.912 61.4742 110.173 62.4872 111.181 63.7537C111.938 64.7668 112.694 66.0333 113.072 67.2995V67.4261C113.072 67.5526 112.946 67.6792 112.82 67.6792C109.668 67.5526 106.264 66.7928 103.238 68.0593C100.465 69.1989 98.9519 72.3649 99.8341 75.2774C100.717 78.1898 103.617 79.9627 106.516 80.2159C109.794 80.4694 113.198 78.8231 115.342 76.417C116.35 75.2774 117.233 73.3779 117.611 71.8582C117.611 71.7316 117.737 71.7316 117.737 71.605C118.115 71.4784 119.25 71.0984 119.628 70.8449C120.385 70.4651 121.141 69.9588 121.772 69.3255C121.772 69.3255 121.898 69.1989 122.024 69.1989C122.15 69.1989 122.15 69.1989 122.276 69.3255C123.411 70.4651 125.176 70.9718 126.815 70.7186C128.58 70.3385 129.84 69.1989 130.597 67.6792C130.597 67.5526 130.723 67.5526 130.849 67.5526C130.975 67.5526 130.975 67.5526 131.101 67.6792C132.11 68.6926 133.371 69.3255 134.757 69.1989C136.396 69.0723 137.783 67.8061 138.666 66.5396C138.666 66.413 138.792 66.413 138.918 66.413C139.044 66.413 139.044 66.413 139.17 66.5396C140.683 68.5657 142.953 70.2119 145.6 69.1989C147.743 68.3125 149.004 66.0333 149.76 64.0069C149.76 63.8803 149.886 63.8803 150.013 63.8803C150.139 63.8803 150.139 63.8803 150.265 64.0069C151.904 65.9064 154.173 67.1729 156.695 66.413C158.712 65.9064 160.477 64.387 161.612 62.7407C164.259 58.6886 164.512 53.2431 163.629 48.811ZM63.6503 74.2643C63.1462 75.0242 62.5157 75.7837 61.7592 76.417C60.3725 77.43 58.7335 78.1898 56.9681 77.9367C55.4554 77.6832 53.9424 76.7967 53.8163 75.1505C53.5643 72.8712 55.8335 72.238 57.7249 72.3649C59.7421 72.4915 61.6332 73.5045 63.5243 73.8843C63.6503 73.8843 63.7763 74.0109 63.7763 74.1377L63.6503 74.2643ZM75.5014 63.8803C75.5014 64.0069 75.3754 64.0069 75.2494 64.0069C75.1233 64.0069 74.9973 63.8803 74.9973 63.7537C74.7452 61.6011 75.3757 59.0684 77.0144 57.8019L77.1405 57.6753C77.2665 57.6753 77.3925 57.8019 77.3925 57.9288C78.1493 60.0814 76.7624 62.234 75.5014 63.8803ZM89.6221 59.7016C89.6221 59.8282 89.496 59.8282 89.37 59.8282C89.2439 59.8282 89.1179 59.7016 89.1179 59.5747C88.8655 57.4221 89.496 54.8894 91.1351 53.6232L91.2611 53.4966C91.3871 53.4966 91.5132 53.6232 91.5132 53.7498C92.27 55.7758 91.009 58.0554 89.6221 59.7016ZM109.164 49.3176C108.912 50.5838 108.407 51.7237 107.777 52.8634C107.777 52.99 107.651 52.99 107.525 52.99C107.399 52.99 107.273 52.99 107.273 52.8634C106.768 51.7237 106.264 50.5838 106.39 49.3176C106.516 48.3046 107.147 46.5314 108.407 46.6583C109.542 46.9115 109.29 48.5578 109.164 49.3176ZM112.694 72.7447C112.064 73.8843 111.055 74.6441 109.92 75.2774C108.66 75.9106 107.02 76.2904 105.634 75.7837C104.751 75.4039 103.617 74.5175 103.995 73.3776C104.373 71.8582 106.39 71.9848 107.525 72.1117C109.164 72.1117 110.803 72.3649 112.442 72.3649C112.568 72.3649 112.694 72.4915 112.694 72.6181V72.7447ZM127.445 62.9939C127.319 64.0069 127.193 65.5266 126.436 66.2864C125.05 67.5526 124.545 63.7537 124.419 63.1205C124.293 61.7277 124.419 59.4485 125.932 58.8152C126.184 58.6883 126.562 58.6883 126.815 58.6883C127.193 58.6883 127.445 58.9418 127.445 59.195V62.9939Z" fill="#FFCC97"/>
<path d="M150.643 40.2002C151.526 40.2002 152.156 40.8334 152.156 41.7199C152.156 42.3528 151.652 42.9861 151.021 43.1127H150.643C149.76 43.1127 149.13 42.4794 149.13 41.593C149.13 41.2132 149.256 40.8334 149.634 40.4534C149.886 40.3268 150.265 40.2002 150.643 40.2002ZM66.6763 49.6975C67.5589 49.6975 68.3151 50.4576 68.3151 51.3437C68.3151 51.8504 68.063 52.3568 67.6849 52.6103C67.4325 52.8634 67.0544 52.9903 66.6763 52.9903C65.7938 52.9903 65.0373 52.2302 65.0373 51.3437V51.0906C65.1633 50.3307 65.9198 49.6975 66.676 49.6975" fill="white"/>
</svg>
