<svg width="214" height="121" viewBox="0 0 214 121" fill="none" xmlns="http://www.w3.org/2000/svg">
<g clip-path="url(#clip0_126_338)">
<g clip-path="url(#clip1_126_338)">
<path fill-rule="evenodd" clip-rule="evenodd" d="M93.4835 103.759V103.1L95.746 100.917C96.4742 100.228 97.018 99.5779 97.3773 98.9958C97.7268 98.404 97.9016 97.851 97.9016 97.3368C97.9016 96.7159 97.7268 96.2308 97.3773 95.8719C97.0277 95.5129 96.5616 95.3383 95.979 95.3383C95.4741 95.3383 95.0469 95.4741 94.6973 95.7361C94.3477 96.0077 94.1729 96.3182 94.1729 96.6674C94.1729 96.7159 94.1827 96.7644 94.2021 96.7935C94.2215 96.8226 94.2409 96.842 94.27 96.842C94.2798 96.842 94.2895 96.8323 94.3186 96.8226C94.474 96.7838 94.6293 96.7547 94.7847 96.7547C94.9789 96.7547 95.1342 96.8226 95.2508 96.9391C95.3673 97.0652 95.4255 97.2301 95.4255 97.4241C95.4255 97.6473 95.3673 97.8219 95.2313 97.9577C95.1051 98.0838 94.9303 98.1517 94.7264 98.1517C94.4642 98.1517 94.2312 98.045 94.0564 97.8316C93.8816 97.6182 93.7943 97.3465 93.7943 97.007C93.7943 96.4055 94.0467 95.8913 94.5613 95.4935C95.076 95.0861 95.7266 94.892 96.5228 94.892C97.3773 94.892 98.057 95.0958 98.5716 95.5226C99.0863 95.9398 99.3387 96.4928 99.3387 97.1913C99.3387 97.6473 99.1639 98.1323 98.8241 98.6271C98.4745 99.1316 97.8628 99.7525 96.9889 100.49L94.4351 102.682H98.0181C98.3289 102.682 98.5425 102.614 98.659 102.488C98.7755 102.372 98.8726 102.052 98.9503 101.547H99.3096L99.1251 103.759H93.4835ZM101.912 99.4518C101.912 100.936 102.048 102.003 102.31 102.644C102.572 103.284 103.009 103.604 103.621 103.604C104.233 103.604 104.66 103.284 104.932 102.653C105.194 102.023 105.32 100.956 105.32 99.4518C105.32 97.9965 105.184 96.9391 104.912 96.2599C104.631 95.5905 104.203 95.251 103.621 95.251C103.038 95.251 102.611 95.5905 102.329 96.2794C102.048 96.9682 101.912 98.0256 101.912 99.4518ZM100.485 99.4227C100.485 98.0935 100.786 97.007 101.378 96.1726C101.97 95.3286 102.718 94.9017 103.621 94.9017C104.524 94.9017 105.272 95.3286 105.864 96.1629C106.456 97.007 106.748 98.0935 106.748 99.4227C106.748 100.752 106.447 101.838 105.854 102.682C105.262 103.526 104.514 103.953 103.621 103.953C103.213 103.953 102.844 103.856 102.495 103.672C102.155 103.488 101.825 103.206 101.523 102.818C101.164 102.362 100.902 101.867 100.737 101.324C100.572 100.791 100.485 100.16 100.485 99.4227ZM107.456 103.759V103.1L109.729 100.917C110.457 100.228 110.991 99.5779 111.35 98.9958C111.7 98.404 111.874 97.851 111.874 97.3368C111.874 96.7159 111.7 96.2308 111.36 95.8719C111.01 95.5129 110.534 95.3383 109.952 95.3383C109.447 95.3383 109.02 95.4741 108.67 95.7361C108.321 96.0077 108.146 96.3182 108.146 96.6674C108.146 96.7159 108.155 96.7644 108.175 96.7935C108.194 96.8226 108.214 96.842 108.243 96.842C108.253 96.842 108.272 96.8323 108.301 96.8226C108.447 96.7838 108.602 96.7547 108.758 96.7547C108.961 96.7547 109.117 96.8226 109.233 96.9391C109.35 97.0652 109.408 97.2301 109.408 97.4241C109.408 97.6473 109.34 97.8219 109.214 97.9577C109.078 98.0838 108.913 98.1517 108.699 98.1517C108.437 98.1517 108.214 98.045 108.029 97.8316C107.854 97.6182 107.767 97.3465 107.767 97.007C107.767 96.4055 108.029 95.8913 108.534 95.4935C109.049 95.0861 109.699 94.892 110.496 94.892C111.35 94.892 112.03 95.0958 112.544 95.5226C113.059 95.9398 113.321 96.4928 113.321 97.1913C113.321 97.6473 113.146 98.1323 112.797 98.6271C112.447 99.1316 111.836 99.7525 110.971 100.49L108.408 102.682H111.991C112.302 102.682 112.515 102.614 112.632 102.488C112.748 102.372 112.855 102.052 112.933 101.547H113.292L113.098 103.759H107.456ZM115.885 99.4518C115.885 100.936 116.021 102.003 116.283 102.644C116.555 103.284 116.992 103.604 117.594 103.604C118.205 103.604 118.642 103.284 118.905 102.653C119.167 102.023 119.303 100.956 119.303 99.4518C119.303 97.9965 119.157 96.9391 118.885 96.2599C118.613 95.5905 118.176 95.251 117.594 95.251C117.011 95.251 116.584 95.5905 116.302 96.2794C116.03 96.9682 115.885 98.0256 115.885 99.4518ZM114.467 99.4227C114.467 98.0935 114.758 97.007 115.351 96.1726C115.943 95.3286 116.691 94.9017 117.594 94.9017C118.497 94.9017 119.244 95.3286 119.837 96.1629C120.429 97.007 120.72 98.0935 120.72 99.4227C120.72 100.752 120.429 101.838 119.827 102.682C119.235 103.526 118.487 103.953 117.594 103.953C117.186 103.953 116.817 103.856 116.467 103.672C116.127 103.488 115.807 103.206 115.496 102.818C115.137 102.362 114.875 101.867 114.71 101.324C114.545 100.791 114.467 100.16 114.467 99.4227ZM43.7095 96.8129H88.7547V98.1129H43.7095V96.8129ZM61.9354 100.723H88.7547V102.032H61.9354V100.723ZM122.41 100.723H149.229V102.032H122.41V100.723ZM56.6337 54.8439C57.4688 54.8439 58.1485 55.523 58.1485 56.3477C58.1485 57.182 57.4688 57.8514 56.6337 57.8514C55.8083 57.8514 55.1286 57.182 55.1286 56.3477C55.1286 55.523 55.8083 54.8439 56.6337 54.8439ZM57.5173 48.0916C58.3524 48.0916 59.0224 48.761 59.0224 49.5954C59.0224 50.42 58.3524 51.0991 57.5173 51.0991C56.6919 51.0991 56.0122 50.42 56.0122 49.5954C56.0122 48.761 56.6919 48.0916 57.5173 48.0916ZM59.4787 41.5916C60.3138 41.5916 60.9838 42.261 60.9838 43.0953C60.9838 43.9296 60.3138 44.5991 59.4787 44.5991C58.6534 44.5991 57.9737 43.9296 57.9737 43.0953C57.9737 42.261 58.6534 41.5916 59.4787 41.5916ZM62.149 35.1885C62.9744 35.1885 63.6541 35.8676 63.6541 36.6923C63.6541 37.5266 62.9744 38.196 62.149 38.196C61.314 38.196 60.644 37.5266 60.644 36.6923C60.644 35.8676 61.314 35.1885 62.149 35.1885ZM65.868 29.4452C66.7031 29.4452 67.3731 30.1146 67.3731 30.9489C67.3731 31.7833 66.7031 32.4527 65.868 32.4527C65.0426 32.4527 64.3629 31.7833 64.3629 30.9489C64.3629 30.1146 65.0426 29.4452 65.868 29.4452ZM70.3443 24.1869C71.1794 24.1869 71.8494 24.866 71.8494 25.6907C71.8494 26.525 71.1794 27.1944 70.3443 27.1944C69.519 27.1944 68.8393 26.525 68.8393 25.6907C68.8393 24.8563 69.519 24.1869 70.3443 24.1869ZM75.3451 19.4817C76.1801 19.4817 76.8501 20.1608 76.8501 20.9951C76.8501 21.8198 76.1801 22.4989 75.3451 22.4989C74.5197 22.4989 73.84 21.8198 73.84 20.9951C73.84 20.1608 74.5197 19.4817 75.3451 19.4817ZM80.8021 15.5331C81.6372 15.5331 82.3072 16.2122 82.3072 17.0369C82.3072 17.8712 81.6372 18.5406 80.8021 18.5406C79.9768 18.5406 79.2971 17.8712 79.2971 17.0369C79.2971 16.2122 79.9768 15.5331 80.8021 15.5331ZM86.8515 12.4674C87.6866 12.4674 88.3566 13.1368 88.3566 13.9712C88.3566 14.8055 87.6866 15.4749 86.8515 15.4749C86.0165 15.4749 85.3465 14.8055 85.3465 13.9712C85.3465 13.1368 86.0165 12.4674 86.8515 12.4674ZM93.2602 10.3137C94.0856 10.3137 94.7653 10.9831 94.7653 11.8174C94.7653 12.6421 94.0856 13.3212 93.2602 13.3212C92.4251 13.3212 91.7454 12.6421 91.7454 11.8174C91.7454 10.9831 92.4251 10.3137 93.2602 10.3137ZM100.319 8.83904C101.145 8.83904 101.825 9.51815 101.825 10.3428C101.825 11.1771 101.145 11.8465 100.31 11.8465C99.4844 11.8465 98.8047 11.1771 98.8047 10.3428C98.8047 9.51815 99.4844 8.83904 100.31 8.83904H100.319ZM106.981 8.42188C107.816 8.42188 108.486 9.09128 108.486 9.92562C108.486 10.7503 107.816 11.4294 106.981 11.4294C106.146 11.4294 105.476 10.7503 105.476 9.92562C105.476 9.09128 106.146 8.42188 106.981 8.42188ZM157.366 54.8439C156.531 54.8439 155.852 55.523 155.852 56.3477C155.852 57.182 156.531 57.8514 157.366 57.8514C158.192 57.8514 158.871 57.182 158.871 56.3477C158.871 55.523 158.192 54.8439 157.366 54.8439ZM156.483 48.0916C155.648 48.0916 154.978 48.761 154.978 49.5954C154.978 50.42 155.648 51.0991 156.483 51.0991C157.308 51.0991 157.988 50.42 157.988 49.5954C157.988 48.761 157.308 48.0916 156.483 48.0916ZM154.521 41.5916C153.686 41.5916 153.016 42.261 153.016 43.0953C153.016 43.9296 153.686 44.5991 154.521 44.5991C155.347 44.5991 156.026 43.9296 156.026 43.0953C156.026 42.261 155.347 41.5916 154.521 41.5916ZM151.851 35.1885C151.026 35.1885 150.346 35.8676 150.346 36.6923C150.346 37.5266 151.026 38.196 151.851 38.196C152.686 38.196 153.356 37.5266 153.356 36.6923C153.366 35.8676 152.686 35.1885 151.851 35.1885ZM148.132 29.4452C147.297 29.4452 146.627 30.1146 146.627 30.9489C146.627 31.7833 147.297 32.4527 148.132 32.4527C148.957 32.4527 149.637 31.7833 149.637 30.9489C149.637 30.1146 148.957 29.4452 148.132 29.4452ZM143.656 24.1869C142.821 24.1869 142.151 24.866 142.151 25.6907C142.151 26.525 142.821 27.1944 143.656 27.1944C144.481 27.1944 145.161 26.525 145.161 25.6907C145.161 24.8563 144.481 24.1869 143.656 24.1869ZM138.655 19.4817C137.82 19.4817 137.15 20.1608 137.15 20.9951C137.15 21.8198 137.82 22.4989 138.655 22.4989C139.48 22.4989 140.16 21.8198 140.16 20.9951C140.16 20.1608 139.48 19.4817 138.655 19.4817ZM133.198 15.5331C132.363 15.5331 131.693 16.2122 131.693 17.0369C131.693 17.8712 132.363 18.5406 133.198 18.5406C134.023 18.5406 134.703 17.8712 134.703 17.0369C134.703 16.2122 134.023 15.5331 133.198 15.5331ZM127.148 12.4674C126.313 12.4674 125.643 13.1368 125.643 13.9712C125.643 14.8055 126.313 15.4749 127.148 15.4749C127.984 15.4749 128.654 14.8055 128.654 13.9712C128.654 13.1368 127.984 12.4674 127.148 12.4674ZM120.74 10.3137C119.914 10.3137 119.235 10.9831 119.235 11.8174C119.235 12.6421 119.914 13.3212 120.74 13.3212C121.575 13.3212 122.255 12.6421 122.255 11.8174C122.255 10.9831 121.575 10.3137 120.74 10.3137ZM113.69 8.83904C112.855 8.83904 112.175 9.51815 112.175 10.3428C112.175 11.1771 112.855 11.8465 113.69 11.8465C114.516 11.8465 115.195 11.1771 115.195 10.3428C115.195 9.51815 114.516 8.83904 113.69 8.83904Z" fill="#F7B23B"/>
<path fill-rule="evenodd" clip-rule="evenodd" d="M86.3951 44.6865V45.3462H124.109V44.6865H86.3951ZM121.196 60.4031C123.527 57.4344 124.449 54.3008 124.75 51.7396C126.119 50.8858 130.149 48.6448 131.576 50.9634C131.576 50.9634 133.586 55.5814 121.196 60.4031ZM133.421 50.4299C132.042 46.7918 127.042 48.1694 124.876 49.0522C124.847 47.5388 124.653 46.0059 124.575 46.0059H86.065C85.8028 47.3254 83.5695 59.2292 96.7461 66.4957H113.904C115.613 65.1763 117.06 64.5262 118.283 63.5173C118.982 63.5076 119.643 63.2747 119.643 63.2747C136.703 57.415 133.421 50.4299 133.421 50.4299ZM117.38 69.3285C117.38 69.833 116.972 70.2308 116.477 70.2308H92.4834C91.9784 70.2308 91.5803 69.833 91.5803 69.3285V68.4942C91.5803 67.9994 91.9784 67.5919 92.4834 67.5919H116.477C116.972 67.5919 117.38 67.9994 117.38 68.4942V69.3285Z" fill="#FFCC97"/>
<path fill-rule="evenodd" clip-rule="evenodd" d="M99.1737 28.0481C101.621 28.3294 104.106 28.3682 106.213 28.3682C106.903 28.3682 107.583 28.3682 108.272 28.3585C109.34 28.3585 110.408 28.3488 111.467 28.3585H111.632C111.894 28.3585 112.214 28.3585 112.544 28.3488C112.884 28.3391 113.244 28.3391 113.574 28.3391C112.923 28.4652 112.127 28.6108 111.408 28.7369C109.981 28.9891 108.495 29.2608 107.427 29.513L107.223 29.5518C105.155 30.0466 102.019 30.7839 101.009 33.0153C100.611 33.8787 100.64 34.8683 101.087 35.722C101.562 36.6243 102.436 37.2646 103.427 37.4392C103.776 37.4974 104.145 37.5556 104.553 37.5556C105.213 37.5556 105.874 37.4974 106.505 37.3713C109.767 36.731 109.797 37.575 109.797 37.6623C109.806 38.2153 108.728 39.1758 108.262 39.5929C108.165 39.6803 108.088 39.7482 108.02 39.8064C107.903 39.9228 107.757 40.0489 107.612 40.1847C106.67 41.0191 105.388 42.1639 105.544 43.4057C105.563 43.5609 105.699 43.6676 105.845 43.6676H105.854C106.01 43.6676 106.136 43.5512 106.146 43.396C106.184 42.8818 106.68 42.4258 107.146 42.0474C107.592 41.6885 108.078 41.3489 108.544 41.0288C108.738 40.893 108.932 40.7571 109.117 40.6213L109.136 40.6116C109.991 40.0004 111.418 38.9817 111.612 37.7593C111.69 37.2646 111.564 36.7989 111.234 36.3526C110.331 35.1399 108.709 35.0332 107.252 35.0332H107.136C106.883 35.0332 106.621 35.0429 106.359 35.0429C106.097 35.0526 105.825 35.0623 105.553 35.0623C105.097 35.0623 104.718 35.0429 104.378 34.9944C103.708 34.9071 103.475 34.5481 103.631 34.2765C104.106 33.4713 106.485 32.763 110.777 32.21C111.01 32.1712 111.185 32.1518 111.311 32.1324L112.098 32.016C113.622 31.7929 115.186 31.56 116.691 31.1138C119.371 30.3182 119.885 28.9697 119.827 27.9511C119.827 27.9414 119.817 27.9414 119.817 27.9317H119.827L119.817 27.8928V27.8346C119.691 26.7675 118.953 25.8943 117.778 25.448C116.089 24.7883 114.098 24.7883 112.35 24.7786H111.894C110.389 24.7689 108.864 24.798 107.388 24.8271C106.097 24.8563 104.767 24.8854 103.456 24.8854C102.145 24.8854 100.999 24.8563 99.9311 24.798C99.1154 24.7495 98.1444 24.6816 97.1734 24.4973C96.4354 24.3712 95.5227 24.1965 94.9401 23.7115C94.4157 23.2652 94.9595 22.2853 95.3285 21.8294C96.4257 20.4517 98.3386 19.8793 100.067 19.501C101.659 19.1614 103.398 18.9771 105.544 18.9286C106.922 18.8898 108.262 18.9286 109.544 19.0256H109.563C109.729 19.0256 109.864 18.8898 109.864 18.7249C109.864 18.5793 109.767 18.4629 109.622 18.4338C107.175 17.7256 104.563 17.3569 102.077 17.3569C101.31 17.3569 100.553 17.3957 99.8048 17.4637C96.9598 17.7256 93.2991 18.7443 92.0756 22.0913C91.6581 23.2264 91.7163 24.2354 92.2504 25.0988C93.4253 27.01 96.6685 27.757 99.1737 28.0481Z" fill="#F7B23B"/>
<path d="M89.2402 50.2065C89.2402 50.2065 88.0847 54.6402 94.6585 60.3641" stroke="#FEFEFE" stroke-width="6.81727"/>
<path fill-rule="evenodd" clip-rule="evenodd" d="M86.9389 105.69C87.7643 105.69 88.444 106.359 88.444 107.194C88.444 108.028 87.7643 108.697 86.9389 108.697C86.1039 108.697 85.4339 108.028 85.4339 107.194C85.4339 106.359 86.1039 105.69 86.9389 105.69ZM93.503 108.008C94.338 108.008 95.008 108.678 95.008 109.512C95.008 110.337 94.338 111.016 93.503 111.016C92.6679 111.016 91.9979 110.347 91.9979 109.512C91.9979 108.678 92.6679 108.008 93.503 108.008ZM100.106 109.25C100.941 109.25 101.611 109.92 101.611 110.754C101.611 111.579 100.941 112.258 100.106 112.258C99.2708 112.258 98.6008 111.579 98.6008 110.754C98.6008 109.92 99.2708 109.25 100.106 109.25ZM106.932 109.57C107.767 109.57 108.437 110.25 108.437 111.074C108.437 111.908 107.767 112.578 106.932 112.578C106.107 112.578 105.427 111.908 105.427 111.074C105.427 110.25 106.107 109.57 106.932 109.57ZM113.923 109.308C114.758 109.308 115.438 109.988 115.438 110.812C115.438 111.647 114.758 112.326 113.923 112.326C113.098 112.326 112.418 111.647 112.418 110.812C112.418 109.988 113.098 109.308 113.923 109.308ZM120.526 107.873C121.361 107.873 122.031 108.552 122.031 109.376C122.031 110.211 121.361 110.88 120.526 110.88C119.701 110.88 119.021 110.211 119.021 109.376C119.021 108.552 119.701 107.873 120.526 107.873ZM127.061 105.525C127.896 105.525 128.566 106.194 128.566 107.029C128.566 107.863 127.896 108.532 127.061 108.532C126.236 108.532 125.556 107.863 125.556 107.029C125.556 106.194 126.236 105.525 127.061 105.525ZM47.9626 82.7746L48.6229 82.9493L47.38 86.9851H47.0595L46.5449 86.2672C46.0011 86.6359 45.4379 86.9075 44.8553 87.0918C44.2727 87.2762 43.6804 87.3635 43.0784 87.3635C41.5733 87.3635 40.3498 86.8493 39.4177 85.8015C38.4758 84.7635 38 83.3955 38 81.7172C38 80.6209 38.233 79.4858 38.6797 78.3022C39.1264 77.1283 39.7478 76.0321 40.544 75.0231C41.35 74.0141 42.2142 73.238 43.1269 72.7141C44.0397 72.1999 44.9816 71.938 45.9623 71.938C46.5837 71.938 47.1566 72.0253 47.6713 72.2096C48.1762 72.3843 48.652 72.6559 49.0792 73.0149L49.8172 72.4328H50.3124L49.4288 76.2843H48.8656C48.8559 75.0522 48.6131 74.1111 48.1373 73.4708C47.6518 72.8208 46.9624 72.5007 46.0497 72.5007C45.3311 72.5007 44.6806 72.7335 44.1077 73.1992C43.5348 73.6649 42.9813 74.3925 42.4569 75.382C41.7578 76.7112 41.2238 78.0791 40.8451 79.4761C40.4664 80.8828 40.2819 82.1926 40.2819 83.4247C40.2819 84.5209 40.5246 85.3553 41.0004 85.9374C41.4859 86.5195 42.1753 86.8008 43.0784 86.8008C43.9814 86.8008 44.8456 86.4515 45.7001 85.7627C46.5449 85.0642 47.2926 84.0747 47.9626 82.7746ZM55.8375 78.6515C55.3325 78.6515 54.8956 78.7582 54.5363 78.9813C54.177 79.1948 53.876 79.5343 53.6333 79.9806C53.4876 80.2425 53.3517 80.553 53.2254 80.9022C53.0895 81.2515 52.9439 81.7366 52.7788 82.3381C52.604 82.959 52.4778 83.4926 52.4001 83.9388C52.3127 84.3754 52.2739 84.7538 52.2739 85.0642C52.2739 85.6269 52.4195 86.0441 52.6914 86.3351C52.9633 86.6165 53.3711 86.762 53.9052 86.762C54.4198 86.762 54.8762 86.6165 55.284 86.3448C55.6918 86.0732 56.0122 85.6851 56.2259 85.2C56.5754 84.4045 56.857 83.5896 57.0512 82.7261C57.2551 81.8821 57.3522 81.0866 57.3522 80.3687C57.3522 79.7963 57.2163 79.3791 56.9735 79.088C56.7211 78.797 56.3424 78.6515 55.8375 78.6515ZM50.5163 84.0359C50.5163 83.415 50.6328 82.8135 50.8562 82.2314C51.0795 81.6396 51.4194 81.0575 51.8757 80.4754C52.4778 79.6992 53.0992 79.1269 53.7498 78.7679C54.4004 78.3992 55.1189 78.2246 55.9054 78.2246C56.8667 78.2246 57.6435 78.5448 58.2553 79.1851C58.8476 79.8254 59.1486 80.65 59.1486 81.6687C59.1486 82.2508 59.0321 82.8426 58.8088 83.4538C58.5757 84.0553 58.2359 84.6374 57.7989 85.2C57.2746 85.8597 56.6628 86.3642 55.9734 86.7232C55.2937 87.0821 54.5654 87.2568 53.808 87.2568C52.8662 87.2568 52.0797 86.9463 51.4485 86.3157C50.827 85.6948 50.5163 84.9381 50.5163 84.0359ZM60.5274 86.9851L62.6345 78.991H60.9547V78.4283C61.5567 78.4283 62.149 78.4089 62.7316 78.3701C63.3045 78.341 63.8774 78.2925 64.4503 78.2246L63.8871 80.3007C64.4018 79.5925 64.9358 79.0686 65.4699 78.7291C66.0039 78.3798 66.5671 78.2149 67.1497 78.2149C67.7615 78.2149 68.2178 78.3604 68.5383 78.6515C68.8587 78.9425 69.0238 79.3694 69.0238 79.9127V80.1649C69.0141 80.2231 69.0044 80.2716 69.0044 80.3104C69.4802 79.6022 69.9948 79.088 70.5289 78.7388C71.0726 78.3895 71.6552 78.2149 72.2767 78.2149C72.8787 78.2149 73.3448 78.341 73.6846 78.6224C74.0245 78.894 74.1896 79.2724 74.1896 79.7575C74.1896 79.8933 74.1798 80.0388 74.1604 80.2037C74.1507 80.359 74.1119 80.5045 74.0827 80.65L72.6554 85.6366C72.6165 85.753 72.5971 85.85 72.5874 85.918C72.5777 85.9956 72.568 86.0635 72.568 86.1217C72.568 86.2187 72.6068 86.2963 72.6845 86.3642C72.7525 86.4321 72.8496 86.4709 72.9758 86.4709C73.3545 86.4612 73.7235 86.2478 74.0827 85.8306C74.4517 85.4038 74.8207 84.7538 75.2091 83.8806L75.6072 84.065C75.248 85.1418 74.8013 85.9568 74.2672 86.4806C73.7235 87.0142 73.0826 87.2762 72.3349 87.2762C71.9271 87.2762 71.6067 87.1695 71.3639 86.9463C71.1212 86.7329 71.0046 86.4224 71.0046 86.0344C71.0046 85.8986 71.0241 85.7336 71.0532 85.559C71.092 85.3844 71.1503 85.1418 71.2377 84.8411L72.4903 80.4851C72.5485 80.291 72.5971 80.1067 72.6165 79.9612C72.6457 79.806 72.6554 79.6895 72.6554 79.5925C72.6554 79.3694 72.5777 79.2045 72.432 79.088C72.2864 78.9716 72.063 78.9231 71.7815 78.9231C71.1697 78.9231 70.5386 79.253 69.888 79.903C69.2277 80.5627 68.7907 81.3388 68.548 82.2314L67.2857 86.9851H65.6447L67.3051 80.7276C67.3148 80.6985 67.3245 80.6694 67.3439 80.6209C67.4605 80.1746 67.5187 79.8836 67.5187 79.7381C67.5187 79.4761 67.441 79.2724 67.276 79.1269C67.1109 78.991 66.8876 78.9231 66.5963 78.9231C66.0039 78.9231 65.3825 79.2433 64.7513 79.8836C64.1105 80.5239 63.6832 81.2709 63.4599 82.1052L62.1296 86.9851H60.5274ZM81.8605 78.7194C81.4042 78.7194 80.9963 78.894 80.6176 79.2433C80.2487 79.5925 79.8991 80.1164 79.5787 80.8149C79.4719 81.0478 79.3748 81.3194 79.2679 81.6202C79.1708 81.9306 79.0835 82.2605 78.9864 82.6194L78.9087 82.9396C78.6368 84.1135 78.4911 84.8411 78.4911 85.1127C78.4911 85.6075 78.6271 86.015 78.899 86.3351C79.1708 86.6456 79.5301 86.8008 79.9574 86.8008C80.4623 86.8008 80.9187 86.6262 81.3168 86.2672C81.7149 85.918 82.0645 85.3844 82.3752 84.6568C82.6665 83.9776 82.9092 83.2306 83.0937 82.4351C83.2782 81.6396 83.3656 80.9993 83.3656 80.4948C83.3656 79.9127 83.2394 79.4664 82.9869 79.1657C82.7345 78.8649 82.3558 78.7194 81.8605 78.7194ZM75.1994 91.215L78.4037 78.991H76.753L76.7627 78.4283C77.4036 78.3992 77.9959 78.3798 78.5397 78.341C79.0835 78.3022 79.5592 78.2634 79.9865 78.2246L79.5787 80.0291C79.8894 79.4373 80.2681 78.991 80.7147 78.6903C81.1517 78.3701 81.6275 78.2246 82.1518 78.2246C83.0063 78.2246 83.7152 78.5448 84.2881 79.1851C84.861 79.8254 85.1426 80.6306 85.1426 81.6105C85.1426 82.2508 85.0163 82.9105 84.7736 83.5799C84.5211 84.2493 84.1715 84.8605 83.7249 85.4038C83.2297 85.9956 82.6762 86.4612 82.045 86.7911C81.4139 87.1307 80.7827 87.2956 80.171 87.2956C79.6661 87.2956 79.2485 87.2083 78.9378 87.0239C78.6174 86.8299 78.3649 86.5389 78.1804 86.1314L76.8307 91.215H78.2678V91.7777H73.9371V91.215H75.1994ZM91.8134 78.6903C91.3862 78.6903 90.9977 78.8358 90.6482 79.1269C90.2889 79.4082 89.9296 79.8739 89.5704 80.5239C89.1431 81.2806 88.8033 82.0761 88.5411 82.9105C88.2983 83.7545 88.1624 84.4724 88.1624 85.0739C88.1624 85.5978 88.2886 86.0053 88.5217 86.2769C88.7644 86.5486 89.1043 86.6941 89.5704 86.6941C90.0656 86.6941 90.522 86.5292 90.9201 86.2187C91.3279 85.8986 91.6969 85.4038 92.027 84.7344C92.1435 84.5015 92.2795 84.1523 92.4446 83.6769C92.5999 83.1918 92.765 82.6485 92.9301 82.047C93.0272 81.6881 93.0951 81.3582 93.1437 81.0575C93.1922 80.747 93.2214 80.4851 93.2214 80.2522C93.2214 79.7381 93.0951 79.3403 92.8718 79.088C92.6388 78.8261 92.2892 78.6903 91.8134 78.6903ZM91.9979 85.7336C91.6483 86.2187 91.2405 86.5971 90.7744 86.859C90.3083 87.121 89.8034 87.2568 89.2694 87.2568C88.4537 87.2568 87.7934 86.956 87.2788 86.3545C86.7544 85.7627 86.502 84.9963 86.502 84.0553C86.502 83.3955 86.6476 82.7358 86.9292 82.0761C87.2205 81.4164 87.6478 80.7664 88.2109 80.1358C88.7644 79.5149 89.3373 79.0492 89.9296 78.7194C90.5317 78.3895 91.1143 78.2246 91.6872 78.2246C92.2309 78.2246 92.6679 78.341 92.998 78.5836C93.3282 78.8261 93.5515 79.1948 93.668 79.6895L94.0467 78.4283H95.6295L93.9011 84.3948C93.7554 84.8799 93.668 85.2388 93.6098 85.462C93.5612 85.6851 93.5321 85.85 93.5321 85.9665C93.5321 86.1023 93.5709 86.2187 93.6486 86.306C93.7263 86.403 93.8234 86.4418 93.9399 86.4418C94.2992 86.4418 94.6779 86.209 95.0663 85.7433C95.4547 85.2777 95.8042 84.6374 96.1247 83.8127L96.6005 83.9776C96.2121 85.0351 95.7363 85.85 95.1828 86.4127C94.6293 86.9754 94.0273 87.2568 93.3767 87.2568C92.9106 87.2568 92.5708 87.1307 92.3475 86.8784C92.1241 86.6262 92.0076 86.2381 91.9979 85.7336ZM99.3387 86.9851H97.688L99.8145 78.991H98.1347V78.4283C98.9018 78.4283 99.5718 78.4089 100.116 78.3701C100.669 78.3313 101.174 78.2828 101.64 78.1955L101.067 80.3881C101.562 79.6604 102.077 79.1172 102.64 78.7485C103.194 78.3798 103.786 78.1955 104.398 78.1955C105.039 78.1955 105.543 78.341 105.922 78.6418C106.291 78.9425 106.476 79.3403 106.476 79.8448C106.476 79.9612 106.466 80.1164 106.437 80.291C106.408 80.4657 106.369 80.6403 106.32 80.8149L104.873 85.7336C104.854 85.8209 104.835 85.8889 104.825 85.9374C104.815 85.9859 104.806 86.015 104.806 86.0344C104.806 86.1605 104.854 86.2575 104.941 86.3351C105.019 86.403 105.126 86.4418 105.262 86.4418C105.65 86.4418 106.029 86.2284 106.388 85.8015C106.757 85.3844 107.126 84.7344 107.495 83.8515L107.922 84.0359C107.505 85.1612 107.029 85.9762 106.514 86.4806C105.99 86.9948 105.378 87.2568 104.679 87.2568C104.233 87.2568 103.873 87.1501 103.621 86.9269C103.359 86.7135 103.232 86.4224 103.232 86.0635C103.232 85.9374 103.252 85.8015 103.281 85.6366C103.31 85.462 103.339 85.2971 103.388 85.1224L104.718 80.553C104.767 80.3687 104.796 80.2134 104.825 80.0873C104.844 79.9515 104.854 79.8545 104.854 79.7866C104.854 79.4761 104.776 79.2433 104.621 79.0978C104.466 78.9522 104.233 78.8746 103.902 78.8746C103.252 78.8746 102.601 79.2239 101.941 79.9224C101.281 80.6209 100.815 81.494 100.523 82.5515L99.3387 86.9851ZM112.632 87.3441C112.574 86.8008 112.486 86.0344 112.379 85.0739C111.933 81.0575 111.447 79.0589 110.923 79.0589C110.67 79.0589 110.399 79.2724 110.107 79.709C109.826 80.1358 109.515 80.8052 109.165 81.7172L108.738 81.5231C109.107 80.4269 109.525 79.6022 110 79.0492C110.467 78.4963 110.991 78.2246 111.554 78.2246C112.574 78.2246 113.302 79.903 113.719 83.2694C113.797 83.8418 113.855 84.2784 113.904 84.5985L116.108 79.8545C116.38 79.253 116.623 78.8261 116.846 78.5933C117.06 78.3604 117.302 78.244 117.574 78.244C117.856 78.244 118.07 78.3119 118.225 78.438C118.38 78.5642 118.458 78.7485 118.458 78.9716C118.458 79.1851 118.38 79.3597 118.244 79.4858C118.108 79.6216 117.924 79.6895 117.71 79.6895C117.555 79.6895 117.419 79.641 117.302 79.5537C117.176 79.4664 117.118 79.4179 117.099 79.4179C117.001 79.4179 116.914 79.4664 116.827 79.5634C116.749 79.6604 116.662 79.8157 116.564 80.0194L112.972 87.8389C112.389 89.1195 111.758 90.0993 111.049 90.7784C110.34 91.4673 109.631 91.8068 108.913 91.8068C108.583 91.8068 108.321 91.7292 108.136 91.5934C107.952 91.4479 107.854 91.2538 107.854 91.0016C107.854 90.759 107.932 90.565 108.068 90.4195C108.214 90.274 108.408 90.2061 108.651 90.2061C108.932 90.2061 109.165 90.3128 109.36 90.5359C109.554 90.7493 109.709 90.8561 109.835 90.8561C110.195 90.8561 110.622 90.5359 111.156 89.8859C111.68 89.2456 112.166 88.3919 112.632 87.3441Z" fill="#FFCC97"/>
<path fill-rule="evenodd" clip-rule="evenodd" d="M47.9626 82.7746L48.6229 82.9493L47.38 86.9851H47.0595L46.5449 86.2672C46.0011 86.6359 45.4379 86.9075 44.8553 87.0919C44.2727 87.2762 43.6804 87.3635 43.0784 87.3635C41.5733 87.3635 40.3498 86.8493 39.4177 85.8015C38.4758 84.7635 38 83.3955 38 81.7172C38 80.6209 38.233 79.4858 38.6797 78.3022C39.1264 77.1283 39.7478 76.0321 40.544 75.0231C41.35 74.0141 42.2142 73.238 43.1269 72.7141C44.0397 72.1999 44.9816 71.938 45.9623 71.938C46.5837 71.938 47.1566 72.0253 47.6713 72.2096C48.1762 72.3843 48.652 72.6559 49.0792 73.0149L49.8172 72.4328H50.3124L49.4288 76.2843H48.8656C48.8559 75.0522 48.6131 74.1111 48.1373 73.4708C47.6518 72.8208 46.9624 72.5007 46.0497 72.5007C45.3311 72.5007 44.6806 72.7335 44.1077 73.1992C43.5348 73.6649 42.9813 74.3925 42.4569 75.382C41.7578 76.7112 41.2238 78.0791 40.8451 79.4761C40.4664 80.8828 40.2819 82.1926 40.2819 83.4247C40.2819 84.5209 40.5246 85.3553 41.0004 85.9374C41.4859 86.5195 42.1753 86.8008 43.0784 86.8008C43.9814 86.8008 44.8456 86.4515 45.7001 85.7627C46.5449 85.0642 47.2926 84.0747 47.9626 82.7746ZM55.8375 78.6515C55.3325 78.6515 54.8956 78.7582 54.5363 78.9813C54.177 79.1948 53.876 79.5343 53.6333 79.9806C53.4876 80.2425 53.3517 80.553 53.2254 80.9022C53.0895 81.2515 52.9439 81.7366 52.7788 82.3381C52.604 82.959 52.4778 83.4926 52.4001 83.9388C52.3127 84.3754 52.2739 84.7538 52.2739 85.0642C52.2739 85.6269 52.4195 86.0441 52.6914 86.3351C52.9633 86.6165 53.3711 86.762 53.9052 86.762C54.4198 86.762 54.8762 86.6165 55.284 86.3448C55.6918 86.0732 56.0122 85.6851 56.2259 85.2C56.5754 84.4045 56.857 83.5896 57.0512 82.7261C57.2551 81.8821 57.3522 81.0866 57.3522 80.3687C57.3522 79.7963 57.2163 79.3791 56.9735 79.088C56.7211 78.797 56.3424 78.6515 55.8375 78.6515ZM50.5163 84.0359C50.5163 83.415 50.6328 82.8135 50.8562 82.2314C51.0795 81.6396 51.4194 81.0575 51.8757 80.4754C52.4778 79.6992 53.0992 79.1269 53.7498 78.7679C54.4004 78.3992 55.1189 78.2246 55.9054 78.2246C56.8667 78.2246 57.6435 78.5448 58.2553 79.1851C58.8476 79.8254 59.1486 80.65 59.1486 81.6687C59.1486 82.2508 59.0321 82.8426 58.8088 83.4538C58.5757 84.0553 58.2359 84.6374 57.7989 85.2C57.2746 85.8597 56.6628 86.3642 55.9734 86.7232C55.2937 87.0821 54.5654 87.2568 53.808 87.2568C52.8662 87.2568 52.0797 86.9463 51.4485 86.3157C50.827 85.6948 50.5163 84.9381 50.5163 84.0359ZM60.5274 86.9851L62.6345 78.991H60.9547V78.4283C61.5567 78.4283 62.149 78.4089 62.7316 78.3701C63.3045 78.341 63.8774 78.2925 64.4503 78.2246L63.8871 80.3007C64.4018 79.5925 64.9358 79.0686 65.4699 78.7291C66.0039 78.3798 66.5671 78.2149 67.1497 78.2149C67.7615 78.2149 68.2178 78.3604 68.5383 78.6515C68.8587 78.9425 69.0238 79.3694 69.0238 79.9127V80.1649C69.0238 80.2231 69.0044 80.2716 69.0044 80.3104C69.4802 79.6022 69.9948 79.088 70.5288 78.7388C71.0726 78.3895 71.6552 78.2149 72.2767 78.2149C72.8787 78.2149 73.3448 78.341 73.6846 78.6224C74.0245 78.894 74.1896 79.2724 74.1896 79.7575C74.1896 79.8933 74.1798 80.0388 74.1604 80.2037C74.1507 80.359 74.1119 80.5045 74.0827 80.65L72.6554 85.6366C72.6165 85.753 72.5971 85.85 72.5874 85.918C72.5777 85.9956 72.568 86.0635 72.568 86.1217C72.568 86.2187 72.6068 86.2963 72.6845 86.3642C72.7525 86.4321 72.8496 86.4709 72.9758 86.4709C73.3545 86.4612 73.7235 86.2478 74.0827 85.8306C74.4517 85.4038 74.8207 84.7538 75.2091 83.8806L75.6072 84.065C75.248 85.1418 74.8013 85.9568 74.2672 86.4807C73.7235 87.0142 73.0826 87.2762 72.3349 87.2762C71.9271 87.2762 71.6067 87.1695 71.3639 86.9463C71.1212 86.7329 71.0046 86.4224 71.0046 86.0344C71.0046 85.8986 71.0241 85.7336 71.0532 85.559C71.092 85.3844 71.1503 85.1418 71.2377 84.8411L72.4903 80.4851C72.5486 80.291 72.5971 80.1067 72.6165 79.9612C72.6457 79.806 72.6554 79.6895 72.6554 79.5925C72.6554 79.3694 72.5777 79.2045 72.432 79.088C72.2864 78.9716 72.063 78.9231 71.7815 78.9231C71.1697 78.9231 70.5386 79.253 69.888 79.903C69.2277 80.5627 68.7907 81.3388 68.548 82.2314L67.2857 86.9851H65.6447L67.3051 80.7276C67.3148 80.6985 67.3245 80.6694 67.3439 80.6209C67.4605 80.1746 67.5187 79.8836 67.5187 79.7381C67.5187 79.4761 67.441 79.2724 67.276 79.1269C67.1109 78.991 66.8876 78.9231 66.5963 78.9231C66.0039 78.9231 65.3825 79.2433 64.7513 79.8836C64.1105 80.5239 63.6832 81.2709 63.4599 82.1052L62.1296 86.9851H60.5274ZM81.8605 78.7194C81.4042 78.7194 80.9963 78.894 80.6176 79.2433C80.2487 79.5925 79.8991 80.1164 79.5787 80.8149C79.4719 81.0478 79.3748 81.3194 79.2679 81.6202C79.1708 81.9306 79.0835 82.2605 78.9863 82.6194L78.9087 82.9396C78.6368 84.1135 78.4911 84.8411 78.4911 85.1127C78.4911 85.6075 78.6271 86.015 78.899 86.3351C79.1708 86.6456 79.5301 86.8008 79.9574 86.8008C80.4623 86.8008 80.9187 86.6262 81.3168 86.2672C81.7149 85.918 82.0645 85.3844 82.3752 84.6568C82.6665 83.9776 82.9092 83.2306 83.0937 82.4351C83.2782 81.6396 83.3656 80.9993 83.3656 80.4948C83.3656 79.9127 83.2394 79.4664 82.9869 79.1657C82.7345 78.8649 82.3558 78.7194 81.8605 78.7194ZM75.1994 91.215L78.4037 78.991H76.753L76.7627 78.4283C77.4036 78.3992 77.9959 78.3798 78.5397 78.341C79.0835 78.3022 79.5592 78.2634 79.9865 78.2246L79.5787 80.0291C79.8894 79.4373 80.2681 78.991 80.7147 78.6903C81.1517 78.3701 81.6275 78.2246 82.1518 78.2246C83.0063 78.2246 83.7152 78.5448 84.2881 79.1851C84.861 79.8254 85.1426 80.6306 85.1426 81.6105C85.1426 82.2508 85.0163 82.9105 84.7736 83.5799C84.5211 84.2493 84.1715 84.8605 83.7249 85.4038C83.2297 85.9956 82.6762 86.4612 82.045 86.7911C81.4139 87.1307 80.7827 87.2956 80.171 87.2956C79.6661 87.2956 79.2485 87.2083 78.9378 87.0239C78.6174 86.8299 78.3649 86.5389 78.1804 86.1314L76.8307 91.215H78.2678V91.7777H73.9371V91.215H75.1994ZM91.8134 78.6903C91.3862 78.6903 90.9977 78.8358 90.6482 79.1269C90.2889 79.4082 89.9296 79.8739 89.5704 80.5239C89.1431 81.2806 88.8033 82.0761 88.5411 82.9105C88.2983 83.7545 88.1624 84.4724 88.1624 85.0739C88.1624 85.5978 88.2886 86.0053 88.5217 86.2769C88.7644 86.5486 89.1043 86.6941 89.5704 86.6941C90.0656 86.6941 90.522 86.5292 90.9201 86.2187C91.3279 85.8986 91.6969 85.4038 92.027 84.7344C92.1435 84.5015 92.2795 84.1523 92.4446 83.6769C92.5999 83.1918 92.765 82.6485 92.9301 82.047C93.0272 81.6881 93.0951 81.3582 93.1437 81.0575C93.1922 80.747 93.2214 80.4851 93.2214 80.2522C93.2214 79.7381 93.0951 79.3403 92.8718 79.088C92.6388 78.8261 92.2892 78.6903 91.8134 78.6903ZM91.9979 85.7336C91.6483 86.2187 91.2405 86.5971 90.7744 86.859C90.3083 87.121 89.8034 87.2568 89.2694 87.2568C88.4537 87.2568 87.7934 86.956 87.2788 86.3545C86.7544 85.7627 86.502 84.9963 86.502 84.0553C86.502 83.3955 86.6476 82.7358 86.9292 82.0761C87.2205 81.4164 87.6478 80.7664 88.2109 80.1358C88.7644 79.5149 89.3373 79.0492 89.9296 78.7194C90.5317 78.3895 91.1143 78.2246 91.6872 78.2246C92.2309 78.2246 92.6679 78.341 92.998 78.5836C93.3282 78.8261 93.5515 79.1948 93.668 79.6895L94.0467 78.4283H95.6295L93.9011 84.3948C93.7554 84.8799 93.668 85.2388 93.6098 85.462C93.5612 85.6851 93.5321 85.85 93.5321 85.9665C93.5321 86.1023 93.5709 86.2187 93.6486 86.306C93.7263 86.403 93.8234 86.4418 93.9399 86.4418C94.2992 86.4418 94.6779 86.209 95.0663 85.7433C95.4547 85.2777 95.8043 84.6374 96.1247 83.8127L96.6005 83.9776C96.2121 85.0351 95.7363 85.85 95.1828 86.4127C94.6293 86.9754 94.0273 87.2568 93.3767 87.2568C92.9106 87.2568 92.5708 87.1307 92.3475 86.8784C92.1241 86.6262 92.0076 86.2381 91.9979 85.7336ZM99.3387 86.9851H97.688L99.8145 78.991H98.1347V78.4283C98.9018 78.4283 99.5718 78.4089 100.116 78.3701C100.669 78.3313 101.174 78.2828 101.64 78.1955L101.067 80.3881C101.562 79.6604 102.077 79.1172 102.64 78.7485C103.194 78.3798 103.786 78.1955 104.398 78.1955C105.039 78.1955 105.543 78.341 105.922 78.6418C106.291 78.9425 106.476 79.3403 106.476 79.8448C106.476 79.9612 106.466 80.1164 106.437 80.291C106.408 80.4657 106.369 80.6403 106.32 80.8149L104.873 85.7336C104.854 85.8209 104.835 85.8889 104.825 85.9374L104.806 86.0344C104.806 86.1605 104.854 86.2575 104.941 86.3351C105.019 86.403 105.126 86.4418 105.262 86.4418C105.65 86.4418 106.029 86.2284 106.388 85.8015C106.757 85.3844 107.126 84.7344 107.495 83.8515L107.922 84.0359C107.505 85.1612 107.029 85.9762 106.514 86.4807C105.99 86.9948 105.378 87.2568 104.679 87.2568C104.233 87.2568 103.873 87.1501 103.621 86.9269C103.359 86.7135 103.232 86.4224 103.232 86.0635C103.232 85.9374 103.252 85.8015 103.281 85.6366C103.31 85.462 103.339 85.2971 103.388 85.1224L104.718 80.553C104.767 80.3687 104.796 80.2134 104.825 80.0873C104.844 79.9515 104.854 79.8545 104.854 79.7866C104.854 79.4761 104.776 79.2433 104.621 79.0978C104.466 78.9522 104.233 78.8746 103.902 78.8746C103.252 78.8746 102.601 79.2239 101.941 79.9224C101.281 80.6209 100.815 81.494 100.523 82.5515L99.3387 86.9851ZM112.632 87.3441C112.574 86.8008 112.486 86.0344 112.379 85.0739C111.933 81.0575 111.447 79.0589 110.923 79.0589C110.67 79.0589 110.399 79.2724 110.107 79.709C109.826 80.1358 109.515 80.8052 109.165 81.7172L108.738 81.5231C109.107 80.4269 109.525 79.6022 110 79.0492C110.467 78.4963 110.991 78.2246 111.554 78.2246C112.574 78.2246 113.302 79.903 113.719 83.2694C113.797 83.8418 113.855 84.2784 113.904 84.5985L116.108 79.8545C116.38 79.253 116.623 78.8261 116.846 78.5933C117.06 78.3604 117.302 78.244 117.574 78.244C117.856 78.244 118.07 78.3119 118.225 78.438C118.38 78.5642 118.458 78.7485 118.458 78.9716C118.458 79.1851 118.38 79.3597 118.244 79.4858C118.108 79.6216 117.924 79.6895 117.71 79.6895C117.555 79.6895 117.419 79.641 117.302 79.5537C117.176 79.4664 117.099 79.4179 117.099 79.4179C117.001 79.4179 116.914 79.4664 116.827 79.5634C116.749 79.6604 116.662 79.8157 116.564 80.0194L112.972 87.8389C112.389 89.1195 111.758 90.0993 111.049 90.7784C110.34 91.4673 109.631 91.8068 108.913 91.8068C108.583 91.8068 108.321 91.7292 108.136 91.5934C107.952 91.4479 107.854 91.2538 107.854 91.0016C107.854 90.759 107.932 90.565 108.068 90.4195C108.214 90.274 108.408 90.2061 108.651 90.2061C108.932 90.2061 109.165 90.3128 109.36 90.5359C109.554 90.7493 109.709 90.8561 109.835 90.8561C110.195 90.8561 110.622 90.5359 111.156 89.8859C111.68 89.2456 112.166 88.3919 112.632 87.3441Z" stroke="#FFCC97"/>
<path fill-rule="evenodd" clip-rule="evenodd" d="M135.266 82.7746L135.926 82.9493L134.683 86.9851H134.363L133.848 86.2672C133.305 86.6359 132.741 86.9075 132.159 87.0919C131.576 87.2762 130.984 87.3635 130.382 87.3635C128.877 87.3635 127.653 86.8493 126.721 85.8015C125.779 84.7635 125.304 83.3955 125.304 81.7172C125.304 80.6209 125.537 79.4858 125.983 78.3022C126.43 77.1283 127.051 76.0321 127.848 75.0231C128.654 74.0141 129.518 73.238 130.43 72.7141C131.343 72.1999 132.285 71.938 133.266 71.938C133.887 71.938 134.46 72.0253 134.975 72.2096C135.48 72.3843 135.956 72.6559 136.383 73.0149L137.121 72.4328H137.616L136.732 76.2843H136.169C136.159 75.0522 135.917 74.1111 135.441 73.4708C134.955 72.8208 134.266 72.5007 133.353 72.5007C132.635 72.5007 131.984 72.7335 131.411 73.1992C130.838 73.6649 130.285 74.3925 129.76 75.382C129.061 76.7112 128.527 78.0791 128.149 79.4761C127.77 80.8828 127.585 82.1926 127.585 83.4247C127.585 84.5209 127.828 85.3553 128.304 85.9374C128.789 86.5195 129.479 86.8008 130.382 86.8008C131.285 86.8008 132.159 86.4515 133.004 85.7627C133.848 85.0642 134.596 84.0747 135.266 82.7746ZM143.151 78.6515C142.636 78.6515 142.199 78.7582 141.84 78.9813C141.481 79.1948 141.18 79.5343 140.937 79.9806C140.791 80.2425 140.655 80.553 140.529 80.9022C140.393 81.2515 140.247 81.7366 140.082 82.3381C139.908 82.959 139.781 83.4926 139.704 83.9388C139.626 84.3754 139.577 84.7538 139.577 85.0642C139.577 85.6269 139.723 86.0441 139.995 86.3351C140.267 86.6165 140.675 86.762 141.209 86.762C141.723 86.762 142.18 86.6165 142.588 86.3448C142.995 86.0732 143.316 85.6851 143.529 85.2C143.879 84.4045 144.161 83.5896 144.355 82.7261C144.559 81.8821 144.656 81.0866 144.656 80.3687C144.656 79.7963 144.53 79.3791 144.277 79.088C144.025 78.797 143.646 78.6515 143.141 78.6515H143.151ZM137.82 84.0359C137.82 83.415 137.936 82.8135 138.16 82.2314C138.383 81.6396 138.723 81.0575 139.179 80.4754C139.781 79.6992 140.403 79.1269 141.053 78.7679C141.704 78.3992 142.422 78.2246 143.209 78.2246C144.17 78.2246 144.947 78.5448 145.559 79.1851C146.151 79.8254 146.452 80.65 146.452 81.6687C146.452 82.2508 146.336 82.8426 146.112 83.4538C145.879 84.0553 145.539 84.6374 145.102 85.2C144.578 85.8597 143.966 86.3642 143.277 86.7232C142.597 87.0821 141.869 87.2568 141.112 87.2568C140.17 87.2568 139.383 86.9463 138.752 86.3157C138.131 85.6948 137.82 84.9381 137.82 84.0359ZM149.899 78.9425H148.103V78.4283H150.064C150.647 76.294 151.356 74.7029 152.201 73.6455C153.045 72.5977 154.036 72.0738 155.182 72.0738C155.706 72.0738 156.123 72.1902 156.424 72.4328C156.725 72.6656 156.871 72.9858 156.871 73.3738C156.871 73.6746 156.803 73.9074 156.657 74.0723C156.512 74.2373 156.318 74.3246 156.065 74.3246C155.764 74.3246 155.531 74.2567 155.366 74.1111C155.201 73.9656 155.114 73.7716 155.114 73.5096C155.114 73.3447 155.152 73.1895 155.211 73.0634C155.279 72.9373 155.317 72.8693 155.317 72.8596C155.317 72.782 155.279 72.7141 155.22 72.6656C155.152 72.6171 155.046 72.588 154.91 72.588C154.249 72.588 153.706 72.9858 153.249 73.7813C152.803 74.5768 152.288 76.1194 151.725 78.4283H153.735V78.9425H151.589L150.56 82.8329C149.618 86.3642 148.734 88.7411 147.928 89.9538C147.112 91.1762 146.103 91.7874 144.879 91.7874C144.394 91.7777 144.005 91.6613 143.704 91.4285C143.403 91.1956 143.258 90.8949 143.258 90.5262C143.258 90.2352 143.335 90.0023 143.491 89.8374C143.656 89.6822 143.879 89.5949 144.161 89.5949C144.394 89.5949 144.588 89.6725 144.743 89.8083C144.889 89.9441 144.966 90.1284 144.966 90.3613C144.966 90.4971 144.937 90.6426 144.869 90.7882C144.801 90.9337 144.772 91.0307 144.772 91.0695C144.772 91.1374 144.811 91.1956 144.879 91.2344C144.947 91.2635 145.054 91.2829 145.19 91.2829C145.559 91.2829 145.899 91.1568 146.219 90.8949C146.54 90.6426 146.821 90.2546 147.083 89.7598C147.365 89.2262 147.792 87.6933 148.384 85.1515C148.977 82.6 149.482 80.5336 149.899 78.9425ZM155.9 78.9425H154.104V78.4283H156.065C156.648 76.294 157.357 74.7029 158.201 73.6455C159.046 72.5977 160.037 72.0738 161.182 72.0738C161.707 72.0738 162.124 72.1902 162.425 72.4328C162.726 72.6656 162.872 72.9858 162.872 73.3738C162.872 73.6746 162.804 73.9074 162.658 74.0723C162.513 74.2373 162.318 74.3246 162.066 74.3246C161.765 74.3246 161.532 74.2567 161.367 74.1111C161.202 73.9656 161.114 73.7716 161.114 73.5096C161.114 73.3447 161.153 73.1895 161.211 73.0634C161.279 72.9373 161.318 72.8693 161.318 72.8596C161.318 72.782 161.279 72.7141 161.221 72.6656C161.153 72.6171 161.046 72.588 160.91 72.588C160.25 72.588 159.706 72.9858 159.25 73.7813C158.803 74.5768 158.289 76.1194 157.726 78.4283H159.736V78.9425H157.59L156.56 82.8329C155.618 86.3642 154.735 88.7411 153.929 89.9538C153.113 91.1762 152.103 91.7874 150.88 91.7874C150.394 91.7777 150.006 91.6613 149.705 91.4285C149.404 91.1956 149.258 90.8949 149.258 90.5262C149.258 90.2352 149.336 90.0023 149.491 89.8374C149.656 89.6822 149.88 89.5949 150.161 89.5949C150.394 89.5949 150.598 89.6725 150.744 89.8083C150.89 89.9441 150.967 90.1284 150.967 90.3613C150.967 90.4971 150.938 90.6426 150.87 90.7882C150.802 90.9337 150.773 91.0307 150.773 91.0695C150.773 91.1374 150.812 91.1956 150.88 91.2344C150.948 91.2635 151.055 91.2829 151.191 91.2829C151.56 91.2829 151.9 91.1568 152.22 90.8949C152.54 90.6426 152.822 90.2546 153.084 89.7598C153.366 89.2262 153.793 87.6933 154.385 85.1515C154.978 82.6 155.483 80.5336 155.9 78.9425ZM161.998 82.1829H162.221C163.299 82.1829 164.154 81.9694 164.775 81.5328C165.387 81.0963 165.698 80.5045 165.698 79.7381C165.698 79.3888 165.61 79.1366 165.435 78.9716C165.261 78.797 165.008 78.7194 164.678 78.7194C164.183 78.7194 163.707 79.0104 163.26 79.5925C162.804 80.1746 162.386 81.0381 161.998 82.1829ZM161.814 82.7261C161.697 83.1336 161.619 83.512 161.561 83.8321C161.503 84.162 161.483 84.453 161.483 84.7053C161.483 85.365 161.639 85.8597 161.959 86.1993C162.28 86.5486 162.746 86.7135 163.348 86.7135C163.921 86.7135 164.455 86.5195 164.96 86.1411C165.465 85.753 165.892 85.2194 166.241 84.5306L166.707 84.7926C166.329 85.5784 165.834 86.1896 165.212 86.6262C164.6 87.0627 163.921 87.2762 163.192 87.2762C162.212 87.2762 161.406 86.9463 160.775 86.2866C160.143 85.6172 159.833 84.7538 159.833 83.6963C159.833 83.1045 159.939 82.5224 160.163 81.95C160.386 81.3873 160.707 80.8343 161.144 80.3202C161.726 79.6216 162.357 79.0978 163.047 78.7388C163.736 78.3798 164.464 78.1955 165.231 78.1955C165.863 78.1955 166.368 78.3604 166.756 78.6903C167.144 79.0298 167.339 79.4567 167.339 79.9806C167.339 80.8149 166.863 81.4843 165.911 81.9791C164.96 82.4836 163.658 82.7261 162.017 82.7261H161.814ZM170.65 82.1829H170.873C171.961 82.1829 172.805 81.9694 173.427 81.5328C174.039 81.0963 174.349 80.5045 174.349 79.7381C174.349 79.3888 174.262 79.1366 174.087 78.9716C173.922 78.797 173.66 78.7194 173.33 78.7194C172.834 78.7194 172.359 79.0104 171.912 79.5925C171.465 80.1746 171.038 81.0381 170.65 82.1829ZM170.465 82.7261C170.358 83.1336 170.271 83.512 170.213 83.8321C170.164 84.162 170.135 84.453 170.135 84.7053C170.135 85.365 170.29 85.8597 170.611 86.1993C170.931 86.5486 171.397 86.7135 172.009 86.7135C172.572 86.7135 173.106 86.5195 173.611 86.1411C174.116 85.753 174.543 85.2194 174.893 84.5306L175.369 84.7926C174.99 85.5784 174.485 86.1896 173.873 86.6262C173.252 87.0627 172.572 87.2762 171.844 87.2762C170.863 87.2762 170.057 86.9463 169.426 86.2866C168.805 85.6172 168.484 84.7538 168.484 83.6963C168.484 83.1045 168.601 82.5224 168.815 81.95C169.038 81.3873 169.368 80.8343 169.795 80.3202C170.378 79.6216 171.019 79.0978 171.698 78.7388C172.398 78.3798 173.116 78.1955 173.883 78.1955C174.514 78.1955 175.019 78.3604 175.417 78.6903C175.806 79.0298 176 79.4567 176 79.9806C176 80.8149 175.514 81.4843 174.563 81.9791C173.611 82.4836 172.31 82.7261 170.679 82.7261H170.465Z" fill="#FFCC97"/>
<path fill-rule="evenodd" clip-rule="evenodd" d="M167.455 96.813H122.41V98.113H167.455V96.813Z" fill="#F7B23B"/>
</g>
</g>
<defs>
<clipPath id="clip0_126_338">
<rect width="214" height="121" fill="white"/>
</clipPath>
<clipPath id="clip1_126_338">
<rect width="138" height="195" fill="white" transform="translate(38 -37)"/>
</clipPath>
</defs>
</svg>
