<svg width="214" height="121" viewBox="0 0 214 121" fill="none" xmlns="http://www.w3.org/2000/svg">
<g clip-path="url(#clip0_126_348)">
<path fill-rule="evenodd" clip-rule="evenodd" d="M36.9633 52.3828L35.4641 54.7525L32.2509 53.891L33.1075 56.4763L30.323 58.8461L33.1075 61.4314L32.2509 64.0175L35.4641 63.1543L36.9633 65.7397V52.3828Z" fill="#FFCC97" stroke="#FFCC97" stroke-miterlimit="2.613"/>
<path fill-rule="evenodd" clip-rule="evenodd" d="M69.3041 57.9846L68.2328 58.2001L60.0941 47.8589L69.732 37.9489C71.0173 36.6562 71.2312 36.0095 72.5165 35.7948L72.7304 35.3636L59.2375 37.0874V37.7333C59.8802 37.7333 60.308 37.7333 60.0941 38.38C60.0941 39.0268 53.8825 45.9204 49.5988 51.9533H49.3857L49.5996 40.5342C49.5996 40.1039 49.8144 39.6727 51.0988 39.2415V38.5956L40.6044 40.5342V41.3965C41.8896 41.3965 41.8896 41.8268 41.8896 42.258L41.6749 74.1439C41.6749 74.789 41.4609 75.4357 40.1757 76.2972V77.1604L50.2423 71.1283V70.4815C48.957 71.1283 48.957 70.6963 48.7431 70.0512L48.957 62.5109L54.0973 55.1853C54.9538 56.478 60.9507 64.2339 60.9507 64.8806C60.7367 65.5273 60.5228 65.7421 59.8802 65.9577V66.8192L69.732 63.156L76.3723 61.0027L76.5863 60.5715C75.7297 60.5715 75.5157 60.3559 75.5157 60.1412C75.5157 59.9256 75.9444 59.0641 77.4436 55.1861L90.5087 52.8164C90.7226 53.4623 92.2226 56.6944 92.2226 56.9099C92.2226 57.1255 92.0079 57.3411 91.1513 57.5567V57.9878L102.074 57.1255V56.4796C101.432 56.6952 101.218 56.264 100.575 55.4025C97.3629 48.5081 90.9374 35.1505 90.9374 34.7201C90.9374 34.2898 91.1521 34.2898 91.7939 34.2898V33.6431L77.8723 34.5054V35.3669C78.3002 35.3669 78.9429 35.3669 78.9429 35.5825C78.942 36.0087 71.6607 51.9516 69.3041 57.9846Z" fill="#FFCC97"/>
<path d="M69.3041 57.9844L68.2328 58.2L60.0941 47.8588L69.732 37.9487C71.0173 36.6561 71.2312 36.0094 72.5165 35.7946L72.7304 35.3634L59.2375 37.0872V37.7332C59.8802 37.7332 60.0941 37.7332 60.0941 38.3799C60.0941 39.0266 53.8825 45.9202 49.5988 51.9531H49.3857L49.5996 40.534C49.5996 40.1037 49.8144 39.6725 51.0988 39.2414V38.5955L40.6044 40.534V41.3963C41.8896 41.3963 41.8896 41.8267 41.8896 42.2578L41.6749 74.1438C41.6749 74.7888 41.4609 75.4356 40.1757 76.2971V77.1602L50.2423 71.1281V70.4814C48.957 71.1281 48.7431 70.6961 48.7431 70.051L48.957 62.5107L54.0973 55.1852C54.9538 56.4778 60.9507 64.2337 60.9507 64.8804C60.9507 65.5272 60.5228 65.7419 59.8802 65.9575V66.819L69.732 63.1558L76.3723 61.0025L76.5863 60.5713C75.7297 60.5713 75.5157 60.3558 75.5157 60.141C75.5157 59.9254 75.9444 59.0639 77.4436 55.186L90.5087 52.8163C90.7226 53.4622 92.2226 56.6942 92.2226 56.9098C92.2226 57.1254 92.0079 57.3409 91.1513 57.5565V57.9877L102.074 57.1254V56.4794C101.432 56.695 101.218 56.2639 100.575 55.4024C97.3629 48.508 90.9374 35.1503 90.9374 34.72C90.9374 34.2888 91.1521 34.2888 91.794 34.2888V33.6421L77.8723 34.5036V35.3651C78.3002 35.3651 78.9429 35.3651 78.9429 35.5807C78.942 36.0085 71.6607 51.9515 69.3041 57.9844V57.9844Z" stroke="#FFCC97" stroke-miterlimit="2.613"/>
<path fill-rule="evenodd" clip-rule="evenodd" d="M123.492 47.4275C123.492 50.8743 120.921 52.1669 116.424 51.7366C111.927 51.521 109.356 50.0128 109.356 46.7808V34.5002C109.356 34.0698 109.571 33.8543 110.856 33.6387V33.2075H99.9318L99.717 33.8543C101.217 33.8543 101.217 34.0698 101.217 34.5002L101.003 46.7799C101.003 54.7522 108.07 57.3367 116.639 57.9834C125.205 58.6294 131.845 56.6908 131.632 48.2882L131.203 35.3617C131.203 35.1461 131.203 34.7157 132.488 34.7157V34.2846L121.565 33.6379V34.069C122.849 34.2846 123.063 34.4993 123.063 34.9305L123.492 47.4275Z" fill="#FFCC97" stroke="#FFCC97" stroke-miterlimit="2.613"/>
<path fill-rule="evenodd" clip-rule="evenodd" d="M84.511 38.8096L87.0815 45.0572L88.7947 49.1508L78.942 50.8746L81.5126 45.0572L83.8683 38.8096H84.511Z" fill="#FFCC97" stroke="#050201" stroke-miterlimit="2.613"/>
<path fill-rule="evenodd" clip-rule="evenodd" d="M173.396 76.2964V75.4349C172.324 74.3579 172.11 73.9267 172.11 73.28L171.683 41.6105C171.683 41.1793 171.898 40.5334 173.182 40.7482V39.8867L162.687 37.7325V38.5948C163.759 39.0252 163.972 39.4563 163.972 39.8875L164.829 69.1873C164.829 69.6192 164.614 69.834 164.4 69.834C163.759 69.834 163.329 69.1873 162.687 67.4643C159.474 56.9075 152.408 37.9481 152.408 37.5169C152.408 36.871 152.621 36.871 153.264 36.871V36.2243L139.556 34.5005V35.1472C139.983 35.1472 140.628 35.3628 140.628 35.5784C140.628 36.0087 132.274 56.2608 131.845 57.1223C131.632 57.9846 131.203 58.1993 130.561 57.9846V58.8461L140.199 61.2158V60.5699C139.342 60.3543 139.128 59.9231 139.128 59.7084C139.128 59.4936 139.556 58.8461 140.841 55.3993L152.835 59.2772C153.05 60.1387 155.192 64.6626 155.192 64.8782C155.192 65.3085 154.977 65.5249 154.121 65.3085L154.335 65.9552L164.4 70.9103L173.396 76.2964Z" fill="#FFCC97"/>
<path d="M173.396 76.2964V75.4349C172.324 74.3579 172.11 73.9267 172.11 73.28L171.683 41.6105C171.683 41.1793 171.898 40.5334 173.182 40.7482V39.8867L162.687 37.7325V38.5948C163.759 39.0252 163.972 39.4563 163.972 39.8875L164.829 69.1873C164.829 69.6192 164.614 69.834 164.4 69.834C163.759 69.834 163.329 69.1873 162.687 67.4643C159.474 56.9075 152.406 37.9481 152.406 37.5169C152.406 36.871 152.621 36.871 153.264 36.871V36.2243L139.556 34.5005V35.1472C139.983 35.1472 140.628 35.3628 140.628 35.5784C140.628 36.0087 132.274 56.2608 131.845 57.1223C131.632 57.9846 131.203 58.1993 130.561 57.9846V58.8461L140.199 61.2158V60.5699C139.342 60.3543 139.128 59.9231 139.128 59.7084C139.128 59.4936 139.556 58.8461 140.841 55.3993L152.835 59.2772C153.05 60.1387 155.192 64.8782 155.192 64.8782C155.192 65.3085 154.977 65.5249 154.121 65.3085L154.335 65.9552L164.4 70.9103L173.396 76.2964V76.2964Z" stroke="#FFCC97" stroke-miterlimit="2.613"/>
<path fill-rule="evenodd" clip-rule="evenodd" d="M146.838 41.1791L151.336 53.8909L142.125 51.3047L146.195 40.9644L146.838 41.1791Z" fill="#FFCC97" stroke="#050201" stroke-miterlimit="2.613"/>
<path fill-rule="evenodd" clip-rule="evenodd" d="M177.038 51.9517L178.751 54.537L181.749 53.6755L180.893 56.2608L183.677 58.6305L180.893 61.2158L181.749 63.5863L178.751 62.9396L177.038 65.3093V51.9517ZM79.1568 63.8011C72.946 64.2314 69.3041 70.2643 69.7328 76.5128C69.9476 83.6228 74.6591 88.3614 80.0134 88.3614C85.1536 88.3614 90.08 83.4064 89.866 75.0046C89.6513 68.5413 84.2971 62.9396 79.1568 63.8011Z" fill="#FFCC97" stroke="#FFCC97" stroke-miterlimit="2.613"/>
<path fill-rule="evenodd" clip-rule="evenodd" d="M107 60.354C106.786 61.4311 106.786 61.6458 106.357 61.6458L90.5079 62.509V63.1541C91.3644 63.1541 91.5792 63.586 91.3644 64.0172L92.0071 86.639C92.0071 87.0693 92.0071 87.2841 91.1505 87.5005L91.3644 87.9308H97.5752V87.5005C96.9326 87.2841 96.7187 87.0701 96.7187 86.639L96.5047 78.2372H103.573C104.002 78.2372 104.002 78.4519 104.216 79.529H104.43V71.1272H104.216C104.002 71.9887 104.002 72.419 103.573 72.2026L96.5047 72.419V68.1107L106.999 67.6787C107.428 67.8951 107.642 68.1107 107.642 68.9722H108.069L107.429 60.354H107Z" fill="#FFCC97"/>
<path d="M107 60.354C107 61.4311 106.786 61.6458 106.357 61.6458L90.5079 62.509V63.1541C91.3644 63.1541 91.5792 63.586 91.3644 64.0172L92.0071 86.639C92.0071 87.0693 92.0071 87.2841 91.1505 87.5005L91.3644 87.9308H97.5752V87.5005C96.9326 87.2841 96.7187 87.0701 96.7187 86.639L96.5047 78.2372H103.573C104.002 78.2372 104.002 78.4519 104.216 79.529H104.43V71.1272H104.216C104.002 71.9887 104.002 72.419 103.573 72.2026L96.5047 72.419V68.1107L106.999 67.6804C107.428 67.8951 107.642 68.1107 107.642 68.9722H108.069L107.429 60.354H107V60.354Z" stroke="#FFCC97" stroke-miterlimit="2.613"/>
<path fill-rule="evenodd" clip-rule="evenodd" d="M139.983 73.0656H139.769C139.556 73.7107 139.342 74.1427 138.912 73.9271L133.129 73.2804V69.4033L143.196 71.1279C143.411 71.3427 143.623 71.5582 143.623 72.4197L144.052 72.6361L144.266 65.5261L143.838 65.3097C143.838 66.1712 143.623 66.3868 143.411 66.3868L127.774 63.1548V63.8015C128.418 64.0179 128.632 64.2319 128.632 64.663L127.989 86.6397C127.989 87.07 127.774 87.2848 126.918 87.5012V87.9315H142.554C142.767 87.9315 142.767 88.1479 142.981 88.7947H143.41L143.623 81.6847H143.196C142.981 82.7617 142.981 82.9765 142.767 82.9765L132.702 82.5462L132.915 78.2379L138.485 78.6682C139.127 78.883 139.342 79.3133 139.556 79.96H139.983V73.0656Z" fill="#FFCC97" stroke="#FFCC97" stroke-miterlimit="2.613"/>
<path fill-rule="evenodd" clip-rule="evenodd" d="M68.8762 67.4639C68.6623 67.6786 68.6623 67.8942 68.6623 67.8942C68.2336 67.8942 67.591 67.6778 66.0926 67.6778C65.0212 67.6778 63.3081 67.8942 60.9523 68.5409C55.1694 70.2639 51.3144 74.7878 51.3144 80.1748C51.5283 85.5601 56.8834 88.1463 61.8097 88.1463C66.3073 88.361 69.0918 85.9913 69.7336 85.9913C69.9484 85.9913 69.9484 85.9913 70.1623 86.4216L70.5902 85.9913L66.9491 79.9592L66.7352 80.1756C66.7352 80.3904 66.9491 80.6059 66.9491 80.8207C66.9491 81.8978 62.8794 83.1921 61.8089 83.406C59.4523 83.6224 56.2399 82.7609 56.026 79.3125C56.026 75.8657 59.0244 73.9271 61.5949 73.2804C63.9507 72.6353 66.5213 73.2804 66.3065 73.9271C66.5213 74.3575 66.5213 74.3575 66.3065 74.5739L66.7352 74.7886L69.3049 67.6786L68.8762 67.4639Z" fill="#FFCC97"/>
<path d="M68.8762 67.4639C68.8762 67.6803 68.6623 67.8942 68.6623 67.8942C68.2336 67.8942 67.591 67.6794 66.0926 67.6794C65.0212 67.6794 63.3081 67.8942 60.9523 68.5409C55.1694 70.2639 51.3144 74.7878 51.3144 80.1748C51.5283 85.5601 56.8834 88.1463 61.8097 88.1463C66.3073 88.361 69.0918 85.9913 69.7336 85.9913C69.9484 85.9913 69.9484 85.9913 70.1623 86.4216L70.5902 85.9913L66.9491 79.9592L66.7352 80.1756L66.9491 80.8207C66.9491 81.8978 62.8794 83.1921 61.8089 83.406C59.4523 83.6224 56.2399 82.7609 56.026 79.3125C56.026 75.8657 59.0244 73.9271 61.5949 73.2804C63.9507 72.6353 66.5213 73.2804 66.3065 73.9271C66.5213 74.3575 66.5213 74.3575 66.3065 74.5739L66.7352 74.7886L69.3049 67.6803L68.8762 67.4639V67.4639Z" stroke="#FFCC97" stroke-miterlimit="2.613"/>
<path fill-rule="evenodd" clip-rule="evenodd" d="M157.546 76.9432L157.331 76.7268C157.118 77.1588 157.118 77.5899 156.475 77.3735L150.692 75.8653L150.907 72.8488L160.33 75.8653C160.758 76.0817 160.973 76.2956 160.973 76.9424L161.188 77.1588L161.401 71.9873L160.974 71.7709C160.974 72.4177 160.759 72.4177 160.545 72.2013L145.767 66.8159V67.4627C146.411 67.6791 146.411 67.893 146.411 68.3241L145.767 86.8524C145.767 87.0688 145.552 87.4991 144.911 87.4991L144.696 87.9295H160.117C160.545 87.9295 160.759 88.1459 160.974 88.5762H161.189V83.4048H160.974C160.759 84.0515 160.759 84.2663 160.331 84.2663L150.478 83.4048V79.958L156.263 81.0351C156.904 81.0351 157.119 81.4654 157.332 81.8966H157.547V76.9432H157.546Z" fill="#FFCC97" stroke="#FFCC97" stroke-miterlimit="2.613"/>
<path fill-rule="evenodd" clip-rule="evenodd" d="M125.634 61.646C125.419 62.7231 126.061 62.9395 125.634 62.9395L109.141 61.646V62.5091C109.999 62.5091 110.212 62.7239 110.212 63.3706L109.999 86.4227C109.999 87.0695 109.999 87.2842 109.141 87.4998V87.9301H115.782V87.4998C114.926 87.2834 114.711 87.0695 114.926 86.6383V78.2365L121.779 78.4513C122.206 78.4513 122.421 78.6677 122.421 79.9595H122.636L123.063 71.7724H122.636C122.421 72.6356 122.421 72.8495 121.992 72.8495L114.926 72.4192V67.8945L125.42 68.756C125.847 68.756 126.062 68.9724 126.062 70.0494H126.491L126.062 61.646H125.634Z" fill="#FFCC97"/>
<path d="M125.634 61.646C125.419 62.7231 126.061 62.9395 125.634 62.9395L109.141 61.646V62.5091C109.999 62.5091 110.212 62.7239 110.212 63.3706L109.999 86.4227C109.999 87.0695 109.999 87.2842 109.141 87.4998V87.9301H115.782V87.4998C114.926 87.2834 114.926 87.0695 114.926 86.6383V78.2365L121.779 78.4513C122.206 78.4513 122.421 78.6677 122.421 79.9595H122.636L123.063 71.7724H122.636C122.421 72.6356 122.421 72.8495 121.992 72.8495L114.926 72.4192V67.8945L125.42 68.756C125.847 68.756 126.062 68.9724 126.062 70.0494H126.491L126.062 61.646H125.634V61.646Z" stroke="#FFCC97" stroke-miterlimit="2.613"/>
<path fill-rule="evenodd" clip-rule="evenodd" d="M74.8731 76.2963C74.6584 72.6348 77.015 69.6191 79.5847 69.6191C82.3692 69.6191 84.511 72.6356 84.511 76.2963C84.511 79.7431 82.3692 82.7612 79.5847 82.5448C77.015 82.7612 74.6584 79.7431 74.8731 76.2963Z" fill="#FFCC97"/>
<path d="M74.8731 76.2963C74.8731 72.6348 77.015 69.6191 79.5847 69.6191C82.3692 69.6191 84.511 72.6356 84.511 76.2963C84.511 79.7431 82.3692 82.7612 79.5847 82.5448C77.015 82.7612 74.8731 79.7431 74.8731 76.2963Z" stroke="#050201" stroke-miterlimit="2.613"/>
</g>
<defs>
<clipPath id="clip0_126_348">
<rect width="214" height="121" fill="white"/>
</clipPath>
</defs>
</svg>
