<svg width="153" height="26" viewBox="0 0 153 26" fill="none" xmlns="http://www.w3.org/2000/svg">
<line y1="13.5" x2="60" y2="13.5" stroke="white"/>
<path d="M71.7031 17.1719C72.8281 19.8906 72.6406 22.2812 72.3594 23.7344C72.2188 24.3906 72.875 24.8594 73.4375 24.5781C75.7812 23.3594 77 20.4531 77 17.5C77 14.0781 75.3125 10.7031 72.0781 10.0469C71.7031 9.95312 71.3281 10.2344 71.2344 10.6094C70.9062 11.8281 70.4844 14.2656 71.7031 17.1719ZM64.9531 17.5469C64.9531 20.9688 66.5938 24.2969 69.7812 25C70.1562 25.0938 70.5312 24.8594 70.625 24.4844C71 23.2188 71.5156 20.6406 70.25 17.5469C69.4531 15.5312 69.2188 13.375 69.5469 11.3125C69.6406 10.7031 68.9844 10.2344 68.4219 10.5156C66.125 11.7344 64.9531 14.6406 64.9531 17.5469ZM78.125 11.875C80.4688 14.2188 83.8438 15.4375 86.5156 13.7031C86.8438 13.5156 86.9375 13.0938 86.75 12.7656C86.1406 11.6406 84.7344 9.53125 81.7344 8.26562C79.8125 7.46875 78.1719 6.15625 77 4.46875C76.625 4 75.875 4.14062 75.6875 4.70312C74.9375 7.14062 76.1562 9.90625 78.125 11.875ZM87.4062 11.0781C87.7812 11.6406 88.5312 11.5 88.7188 10.8906C89.5156 8.45312 88.2969 5.64062 86.3281 3.625C83.9844 1.28125 80.5156 0.109375 77.8438 1.89062C77.5156 2.07812 77.4688 2.54688 77.6562 2.875C78.2656 3.90625 79.6719 5.875 82.4375 7.04688C85.1094 8.125 86.6094 9.90625 87.4062 11.0781Z" fill="#D27843"/>
<line x1="93" y1="13.5" x2="153" y2="13.5" stroke="white"/>
</svg>
