<svg width="153" height="26" viewBox="0 0 153 26" fill="none" xmlns="http://www.w3.org/2000/svg">
<line y1="14" x2="60" y2="14" stroke="#402218"/>
<path d="M71.7031 17.6719C72.8281 20.3906 72.6406 22.7812 72.3594 24.2344C72.2188 24.8906 72.875 25.3594 73.4375 25.0781C75.7812 23.8594 77 20.9531 77 18C77 14.5781 75.3125 11.2031 72.0781 10.5469C71.7031 10.4531 71.3281 10.7344 71.2344 11.1094C70.9062 12.3281 70.4844 14.7656 71.7031 17.6719ZM64.9531 18.0469C64.9531 21.4688 66.5938 24.7969 69.7812 25.5C70.1562 25.5938 70.5312 25.3594 70.625 24.9844C71 23.7188 71.5156 21.1406 70.25 18.0469C69.4531 16.0312 69.2188 13.875 69.5469 11.8125C69.6406 11.2031 68.9844 10.7344 68.4219 11.0156C66.125 12.2344 64.9531 15.1406 64.9531 18.0469ZM78.125 12.375C80.4688 14.7188 83.8438 15.9375 86.5156 14.2031C86.8438 14.0156 86.9375 13.5938 86.75 13.2656C86.1406 12.1406 84.7344 10.0312 81.7344 8.76562C79.8125 7.96875 78.1719 6.65625 77 4.96875C76.625 4.5 75.875 4.64062 75.6875 5.20312C74.9375 7.64062 76.1562 10.4062 78.125 12.375ZM87.4062 11.5781C87.7812 12.1406 88.5312 12 88.7188 11.3906C89.5156 8.95312 88.2969 6.14062 86.3281 4.125C83.9844 1.78125 80.5156 0.609375 77.8438 2.39062C77.5156 2.57812 77.4688 3.04688 77.6562 3.375C78.2656 4.40625 79.6719 6.375 82.4375 7.54688C85.1094 8.625 86.6094 10.4062 87.4062 11.5781Z" fill="#D27843"/>
<line x1="93" y1="14" x2="153" y2="14" stroke="#402218"/>
</svg>
