<svg width="214" height="43" viewBox="0 0 214 43" fill="none" xmlns="http://www.w3.org/2000/svg">
<path d="M37.6836 11.4961C36.8633 9.60938 32.3516 5.17969 30.957 4.52344C29.2344 3.78516 27.3477 3.375 25.543 3.375C19.9648 3.375 14.1406 6.49219 9.62891 11.0039C3.72266 16.9922 0.113281 25.3594 2.98438 32.0859C3.80469 33.9727 8.31641 38.4023 9.71094 39.0586C11.4336 39.7969 13.3203 40.125 15.125 40.125C20.7031 40.125 26.5273 37.0898 31.0391 32.5781C36.9453 26.5898 40.5547 18.2227 37.6836 11.4961ZM12.418 13.793C16.4375 9.77344 21.3594 7.3125 25.543 7.3125C26.8555 7.3125 28.0859 7.64062 29.2344 8.05078C29.6445 8.37891 30.3828 8.95312 31.1211 9.69141C29.1523 15.9258 25.3789 19.6172 19.7188 20.6836C13.6484 21.832 9.13672 25.3594 6.67578 30.6914C6.59375 30.6094 6.59375 30.6094 6.59375 30.5273C4.37891 25.2773 7.90625 18.3047 12.418 13.793ZM28.25 29.7891C24.2305 33.8086 19.3086 36.1875 15.125 36.1875C13.8125 36.1875 12.582 35.9414 11.4336 35.4492C11.0234 35.2031 10.2852 34.6289 9.54688 33.8906C11.2695 28.7227 14.9609 25.6055 20.457 24.5391C26.8555 23.3086 31.5312 19.3711 34.0742 13.0547C36.2891 18.3047 32.7617 25.2773 28.25 29.7891Z" fill="white"/>
<path d="M56.32 32.884C54.0587 32.884 52.1173 32.404 50.496 31.444C48.8747 30.4627 47.6267 29.108 46.752 27.38C45.8773 25.6307 45.44 23.6147 45.44 21.332C45.44 19.0493 45.8773 17.0333 46.752 15.284C47.6267 13.5347 48.8747 12.1693 50.496 11.188C52.1173 10.2067 54.0587 9.716 56.32 9.716C59.008 9.716 61.2053 10.388 62.912 11.732C64.64 13.0547 65.7173 14.9213 66.144 17.332H61.632C61.3547 16.116 60.7573 15.1667 59.84 14.484C58.944 13.78 57.7493 13.428 56.256 13.428C54.1867 13.428 52.5653 14.132 51.392 15.54C50.2187 16.948 49.632 18.8787 49.632 21.332C49.632 23.7853 50.2187 25.716 51.392 27.124C52.5653 28.5107 54.1867 29.204 56.256 29.204C57.7493 29.204 58.944 28.884 59.84 28.244C60.7573 27.5827 61.3547 26.676 61.632 25.524H66.144C65.7173 27.828 64.64 29.6307 62.912 30.932C61.2053 32.2333 59.008 32.884 56.32 32.884ZM75.1458 32.884C73.7804 32.884 72.6604 32.6707 71.7858 32.244C70.9111 31.796 70.2604 31.2093 69.8338 30.484C69.4071 29.7587 69.1938 28.9587 69.1938 28.084C69.1938 26.612 69.7698 25.4173 70.9218 24.5C72.0738 23.5827 73.8018 23.124 76.1058 23.124H80.1378V22.74C80.1378 21.652 79.8284 20.852 79.2098 20.34C78.5911 19.828 77.8231 19.572 76.9058 19.572C76.0738 19.572 75.3484 19.7747 74.7298 20.18C74.1111 20.564 73.7271 21.14 73.5778 21.908H69.5778C69.6844 20.756 70.0684 19.7533 70.7298 18.9C71.4124 18.0467 72.2871 17.396 73.3538 16.948C74.4204 16.4787 75.6151 16.244 76.9378 16.244C79.1991 16.244 80.9804 16.8093 82.2818 17.94C83.5831 19.0707 84.2338 20.6707 84.2338 22.74V32.5H80.7458L80.3618 29.94C79.8924 30.7933 79.2311 31.4973 78.3778 32.052C77.5458 32.6067 76.4684 32.884 75.1458 32.884ZM76.0738 29.684C77.2471 29.684 78.1538 29.3 78.7938 28.532C79.4551 27.764 79.8711 26.8147 80.0418 25.684H76.5538C75.4658 25.684 74.6871 25.8867 74.2178 26.292C73.7484 26.676 73.5138 27.156 73.5138 27.732C73.5138 28.3507 73.7484 28.8307 74.2178 29.172C74.6871 29.5133 75.3058 29.684 76.0738 29.684ZM88.8785 32.5V20.052H86.7025V16.628H88.8785V14.772C88.8785 12.852 89.3585 11.4867 90.3185 10.676C91.2998 9.86533 92.6225 9.46 94.2865 9.46H96.0465V12.948H94.9265C94.2225 12.948 93.7212 13.0867 93.4225 13.364C93.1238 13.6413 92.9745 14.1107 92.9745 14.772V16.628H96.3985V20.052H92.9745V32.5H88.8785ZM106.73 32.884C105.13 32.884 103.711 32.5427 102.474 31.86C101.236 31.1773 100.266 30.2173 99.5615 28.98C98.8575 27.7427 98.5055 26.3133 98.5055 24.692C98.5055 23.0493 98.8468 21.588 99.5295 20.308C100.234 19.028 101.194 18.036 102.41 17.332C103.647 16.6067 105.098 16.244 106.762 16.244C108.319 16.244 109.695 16.5853 110.89 17.268C112.084 17.9507 113.012 18.8893 113.674 20.084C114.356 21.2573 114.698 22.5693 114.698 24.02C114.698 24.2547 114.687 24.5 114.666 24.756C114.666 25.012 114.655 25.2787 114.634 25.556H102.57C102.655 26.7933 103.082 27.764 103.85 28.468C104.639 29.172 105.588 29.524 106.698 29.524C107.53 29.524 108.223 29.3427 108.778 28.98C109.354 28.596 109.78 28.1053 110.058 27.508H114.218C113.919 28.5107 113.418 29.428 112.714 30.26C112.031 31.0707 111.178 31.7107 110.154 32.18C109.151 32.6493 108.01 32.884 106.73 32.884ZM106.762 19.572C105.759 19.572 104.874 19.86 104.106 20.436C103.338 20.9907 102.847 21.844 102.634 22.996H110.538C110.474 21.9507 110.09 21.1187 109.386 20.5C108.682 19.8813 107.807 19.572 106.762 19.572ZM105.61 15.348V12.468L112.842 8.564V11.892L105.61 15.348ZM131.72 32.884C129.544 32.884 127.794 32.276 126.472 31.06C125.17 29.8227 124.52 28.0733 124.52 25.812H128.616C128.637 26.8573 128.882 27.6893 129.352 28.308C129.821 28.9267 130.578 29.236 131.624 29.236C132.605 29.236 133.32 28.948 133.768 28.372C134.216 27.7747 134.44 26.996 134.44 26.036V10.1H138.536V26.036C138.536 28.2333 137.917 29.9293 136.68 31.124C135.464 32.2973 133.81 32.884 131.72 32.884ZM148.271 32.884C146.905 32.884 145.785 32.6707 144.911 32.244C144.036 31.796 143.385 31.2093 142.959 30.484C142.532 29.7587 142.319 28.9587 142.319 28.084C142.319 26.612 142.895 25.4173 144.047 24.5C145.199 23.5827 146.927 23.124 149.231 23.124H153.263V22.74C153.263 21.652 152.953 20.852 152.335 20.34C151.716 19.828 150.948 19.572 150.031 19.572C149.199 19.572 148.473 19.7747 147.855 20.18C147.236 20.564 146.852 21.14 146.703 21.908H142.703C142.809 20.756 143.193 19.7533 143.855 18.9C144.537 18.0467 145.412 17.396 146.479 16.948C147.545 16.4787 148.74 16.244 150.063 16.244C152.324 16.244 154.105 16.8093 155.407 17.94C156.708 19.0707 157.359 20.6707 157.359 22.74V32.5H153.871L153.487 29.94C153.017 30.7933 152.356 31.4973 151.503 32.052C150.671 32.6067 149.593 32.884 148.271 32.884ZM149.199 29.684C150.372 29.684 151.279 29.3 151.919 28.532C152.58 27.764 152.996 26.8147 153.167 25.684H149.679C148.591 25.684 147.812 25.8867 147.343 26.292C146.873 26.676 146.639 27.156 146.639 27.732C146.639 28.3507 146.873 28.8307 147.343 29.172C147.812 29.5133 148.431 29.684 149.199 29.684ZM165.087 32.5L159.263 16.628H163.551L167.583 28.628L171.615 16.628H175.903L170.047 32.5H165.087ZM182.99 32.884C181.624 32.884 180.504 32.6707 179.63 32.244C178.755 31.796 178.104 31.2093 177.678 30.484C177.251 29.7587 177.038 28.9587 177.038 28.084C177.038 26.612 177.614 25.4173 178.766 24.5C179.918 23.5827 181.646 23.124 183.95 23.124H187.982V22.74C187.982 21.652 187.672 20.852 187.054 20.34C186.435 19.828 185.667 19.572 184.75 19.572C183.918 19.572 183.192 19.7747 182.574 20.18C181.955 20.564 181.571 21.14 181.422 21.908H177.422C177.528 20.756 177.912 19.7533 178.574 18.9C179.256 18.0467 180.131 17.396 181.198 16.948C182.264 16.4787 183.459 16.244 184.782 16.244C187.043 16.244 188.824 16.8093 190.126 17.94C191.427 19.0707 192.078 20.6707 192.078 22.74V32.5H188.59L188.206 29.94C187.736 30.7933 187.075 31.4973 186.222 32.052C185.39 32.6067 184.312 32.884 182.99 32.884ZM183.918 29.684C185.091 29.684 185.998 29.3 186.638 28.532C187.299 27.764 187.715 26.8147 187.886 25.684H184.398C183.31 25.684 182.531 25.8867 182.062 26.292C181.592 26.676 181.358 27.156 181.358 27.732C181.358 28.3507 181.592 28.8307 182.062 29.172C182.531 29.5133 183.15 29.684 183.918 29.684Z" fill="white"/>
</svg>
